<svg width="1000" height="1000" viewBox="0 0 1000 1000" fill="none" xmlns="http://www.w3.org/2000/svg">
<path d="M936.639 582.839C953.787 631.772 941.389 686.203 904.74 722.881C902.009 725.619 899.16 728.232 896.194 730.721C873.015 750.268 843.907 761.403 813.6 762.317C812.208 762.317 810.817 762.375 809.415 762.375H720.843C717.488 762.366 714.163 762.995 711.043 764.228C700.785 768.242 694.037 778.134 694.04 789.149V851.35C694.05 861.342 690.09 870.93 683.031 878.002C675.971 885.074 666.391 889.052 656.398 889.06H246.454V789.149C246.454 774.378 234.491 762.397 219.72 762.375H167.094C132.678 762.388 99.6671 748.722 75.3311 724.386C50.995 700.05 37.3289 667.04 37.3419 632.623V622.422C37.2319 609.022 39.1212 595.681 42.9475 582.839C45.9257 573.017 50.2564 563.656 55.8149 555.027C60.9308 547.117 67.011 539.875 73.9156 533.467C76.7249 530.854 79.6224 528.381 82.6082 526.048C87.1941 522.48 92.0025 519.206 97.0043 516.248C98.6899 515.242 100.379 514.262 102.071 513.308C102.247 513.201 102.453 513.093 102.639 512.995C113.202 507.347 124.301 502.767 135.773 499.324L136.489 499.108C141.549 497.595 146.284 495.156 150.454 491.915C159.492 484.884 165.363 474.546 166.771 463.181C166.992 461.413 167.1 459.632 167.094 457.85V415.72C167.094 414.632 167.094 413.554 167.182 412.486C168.24 392.348 179.066 373.996 196.18 363.329C198.074 362.137 200.037 361.061 202.06 360.105C204.735 358.796 207.507 357.695 210.351 356.812C215.436 355.214 220.707 354.281 226.031 354.039H226.296C227.158 354.039 228.03 353.98 228.893 353.98C229.804 353.98 230.716 353.98 231.607 353.902C232.499 353.823 233.146 353.804 233.891 353.715C250.281 351.976 264.61 341.892 271.778 327.05C272.336 325.932 272.826 324.796 273.267 323.639C275.411 318.138 276.508 312.285 276.501 306.381C276.511 283.81 260.667 264.335 238.565 259.753C237.017 259.439 235.459 259.194 233.881 259.028C233.126 258.949 232.362 258.881 231.598 258.851C230.833 258.822 229.794 258.763 228.883 258.763H162.243C153.242 258.77 144.302 257.289 135.783 254.383C131.715 252.999 127.766 251.288 123.974 249.267C122.177 248.313 120.426 247.3 118.721 246.229L118.594 246.151C111.698 241.803 105.486 236.456 100.16 230.284C98.4646 228.324 96.8475 226.247 95.3285 224.11C92.2818 219.826 89.6562 215.258 87.4885 210.469C86.2591 207.737 85.1892 204.936 84.284 202.08C82.8312 197.634 81.7719 193.07 81.1185 188.438C80.7223 185.664 80.4704 182.87 80.3639 180.069C80.3639 178.981 80.2953 177.884 80.2953 176.776C80.2975 173.32 80.5135 169.867 80.9422 166.437C81.2963 163.624 81.7967 160.83 82.4415 158.068C82.8139 156.422 83.2647 154.805 83.7449 153.168C85.009 148.97 86.6015 144.877 88.5077 140.928C89.8485 138.167 91.3505 135.487 93.0059 132.902C94.7183 130.178 96.5935 127.56 98.6213 125.062C99.131 124.435 99.6013 123.817 100.17 123.2C100.738 122.582 101.238 121.975 101.797 121.387C117.155 104.56 138.844 94.9141 161.626 94.7798H716.894C769.889 94.7852 812.85 137.746 812.855 190.741C812.855 228.187 843.157 258.724 880.593 258.646C909.877 258.616 936.952 274.211 951.62 299.557C966.288 324.903 966.32 356.149 951.703 381.524C937.087 406.9 910.043 422.55 880.759 422.58H705.467C686.118 422.585 670.433 438.266 670.422 457.615C670.422 458.252 670.422 458.889 670.481 459.516C671.466 478.113 686.844 492.681 705.467 492.66H809.347C840.426 492.613 870.56 503.35 894.607 523.04C902.547 529.526 909.727 536.89 916.01 544.992C918.509 548.236 920.91 551.587 923.105 555.056C928.672 563.765 933.214 573.088 936.639 582.839Z" fill="#F0F3F9"/>
<rect x="72.3672" y="888.041" width="843.76" height="17.2578" rx="8.6289" fill="#34629B"/>
<path d="M557.585 94.8484V525.274C557.587 527.444 556.728 529.525 555.194 531.06C553.661 532.595 551.581 533.457 549.412 533.457H73.8765C76.6858 530.844 79.5833 528.371 82.5691 526.039C87.155 522.47 91.9634 519.196 96.9653 516.239C98.6509 515.232 100.34 514.252 102.032 513.299C102.208 513.191 102.414 513.083 102.6 512.985C113.163 507.337 124.262 502.757 135.734 499.314L136.449 499.098C141.51 497.586 146.245 495.147 150.414 491.905C159.453 484.874 165.324 474.536 166.731 463.172C166.953 461.403 167.061 459.623 167.055 457.84V415.72C167.055 414.632 167.055 413.554 167.143 412.486C168.201 392.348 179.027 373.996 196.141 363.329C198.035 362.137 199.998 361.061 202.021 360.105C204.696 358.796 207.468 357.695 210.312 356.812C215.397 355.214 220.667 354.281 225.992 354.039H226.257C227.119 354.039 227.991 353.98 228.854 353.98C229.765 353.98 230.676 353.98 231.568 353.902C232.46 353.823 233.107 353.804 233.852 353.715C250.242 351.976 264.57 341.892 271.738 327.05C272.297 325.932 272.787 324.796 273.228 323.639C275.372 318.138 276.469 312.285 276.462 306.381C276.472 283.81 260.628 264.335 238.526 259.753C236.978 259.439 235.42 259.194 233.842 259.028C233.087 258.949 232.323 258.881 231.558 258.851C230.794 258.822 229.755 258.763 228.844 258.763H162.204C153.203 258.77 144.263 257.289 135.744 254.383C131.676 252.999 127.727 251.288 123.935 249.267C122.138 248.313 120.387 247.3 118.682 246.229L118.555 246.151C111.673 241.8 105.474 236.453 100.16 230.284C98.4647 228.324 96.8477 226.247 95.3287 224.11C92.2819 219.826 89.6563 215.258 87.4887 210.469C86.2593 207.737 85.1893 204.936 84.2841 202.08C82.8313 197.634 81.7721 193.07 81.1187 188.438C80.7224 185.664 80.4705 182.87 80.3641 180.069C80.3641 178.981 80.2955 177.884 80.2955 176.776C80.2976 173.32 80.5136 169.867 80.9423 166.437C81.2964 163.624 81.7969 160.83 82.4417 158.068C82.8141 156.422 83.2649 154.805 83.7451 153.168C85.0091 148.97 86.6016 144.877 88.5079 140.928C89.8486 138.167 91.3506 135.487 93.0061 132.902C94.7184 130.178 96.5936 127.56 98.6215 125.062C99.1311 124.435 99.6015 123.817 100.17 123.2C100.738 122.582 101.238 121.975 101.797 121.387C117.155 104.56 138.844 94.9141 161.626 94.7798H557.546L557.585 94.8484Z" fill="#6E8EC8"/>
<path d="M541.679 94.8484V505.145V505.978C541.654 506.252 541.608 506.524 541.542 506.791C541.542 506.997 541.454 507.193 541.405 507.389C541.356 507.585 541.278 507.771 541.229 507.958C541.164 508.132 541.088 508.302 541.003 508.467C540.925 508.664 540.837 508.857 540.739 509.045C540.613 509.28 540.473 509.506 540.317 509.722C540.176 509.939 540.022 510.149 539.857 510.349C539.69 510.553 539.51 510.746 539.318 510.927C539.14 511.116 538.95 511.292 538.749 511.456C538.534 511.623 538.328 511.78 538.112 511.927C537.899 512.077 537.676 512.215 537.446 512.338C537.214 512.466 536.975 512.581 536.73 512.681C536.485 512.779 536.231 512.877 535.976 512.956C535.721 513.034 535.456 513.103 535.182 513.161C534.643 513.272 534.095 513.327 533.545 513.328H102.032C102.208 513.22 102.414 513.112 102.6 513.014C113.163 507.367 124.262 502.787 135.734 499.343L136.449 499.128C141.509 497.615 146.245 495.176 150.414 491.935C159.453 484.903 165.324 474.566 166.731 463.201C166.953 461.433 167.061 459.652 167.055 457.87V415.72C167.055 414.632 167.055 413.554 167.143 412.486C168.201 392.348 179.027 373.996 196.141 363.329C198.035 362.137 199.998 361.061 202.021 360.105C204.696 358.796 207.468 357.695 210.312 356.812C215.397 355.214 220.667 354.281 225.992 354.039H226.257C227.119 354.039 227.991 353.98 228.854 353.98C229.765 353.98 230.676 353.98 231.568 353.902C232.46 353.823 233.107 353.804 233.852 353.715C250.242 351.976 264.57 341.892 271.738 327.05C272.297 325.932 272.787 324.796 273.228 323.639C275.372 318.138 276.469 312.285 276.462 306.381C276.472 283.81 260.628 264.335 238.526 259.753C236.978 259.439 235.42 259.194 233.842 259.028C233.087 258.949 232.323 258.881 231.558 258.851C230.794 258.822 229.755 258.763 228.844 258.763H162.204C153.203 258.77 144.263 257.289 135.744 254.383C131.676 252.999 127.727 251.288 123.935 249.267C122.138 248.313 120.387 247.3 118.682 246.229L118.555 246.151C111.673 241.8 105.474 236.453 100.16 230.284C98.4646 228.324 96.8476 226.247 95.3286 224.11C92.2818 219.826 89.6563 215.258 87.4886 210.469C86.2592 207.737 85.1892 204.936 84.284 202.08C82.8312 197.634 81.772 193.07 81.1186 188.438C80.7223 185.664 80.4705 182.87 80.364 180.069C80.364 178.981 80.2954 177.884 80.2954 176.776C80.2976 173.32 80.5136 169.867 80.9422 166.437C81.2963 163.624 81.7968 160.83 82.4416 158.068C82.814 156.422 83.2648 154.805 83.745 153.168C85.0091 148.97 86.6016 144.877 88.5078 140.928C89.8485 138.167 91.3505 135.487 93.006 132.902C94.7183 130.178 96.5935 127.56 98.6214 125.062C99.131 124.435 99.6014 123.817 100.17 123.2C100.738 122.582 101.238 121.975 101.797 121.387C117.155 104.56 138.844 94.9141 161.626 94.7798H541.679V94.8484Z" fill="#E9F1FF"/>
<path d="M541.679 124.925V505.165C541.674 509.678 538.019 513.337 533.506 513.348H278.285V171.7L278.902 171.279L288.702 164.654L322.62 141.614H376.961L388.064 135.665L393.141 132.951L395.934 131.451L407.694 125.14L435.134 110.44L463.25 116.82V150.669H477.842V94.8092H502.42L510.094 102.483V124.885L541.679 124.925Z" fill="#B3C9EB"/>
<path d="M480.4 190.722V513.328H533.487C538.006 513.328 541.67 509.664 541.67 505.145V168.309H521.413L480.4 190.722Z" fill="#819FCC"/>
<path d="M322.61 141.614H345.974V513.328H322.61V141.614Z" fill="#819FCC"/>
<path d="M135.734 123.494V254.334C131.666 252.95 127.717 251.239 123.925 249.218C122.128 248.264 120.377 247.251 118.672 246.18L118.545 246.102C111.67 241.765 105.474 236.435 100.16 230.284C98.4646 228.324 96.8476 226.247 95.3286 224.11C92.2818 219.826 89.6563 215.258 87.4886 210.469C86.2592 207.737 85.1892 204.936 84.284 202.08C82.8312 197.634 81.772 193.07 81.1186 188.438C80.7223 185.664 80.4705 182.87 80.364 180.069C80.364 178.981 80.2954 177.884 80.2954 176.776C80.2976 173.32 80.5136 169.867 80.9422 166.437C81.2963 163.624 81.7968 160.83 82.4416 158.068C82.814 156.422 83.2648 154.805 83.745 153.168C85.0091 148.97 86.6016 144.877 88.5078 140.928L110.205 132.902L131.285 125.062L135.734 123.494Z" fill="#B3C9EB"/>
<path d="M102.6 513.014C113.162 507.367 124.262 502.787 135.734 499.343V513.328H102.032C102.208 513.22 102.414 513.112 102.6 513.014Z" fill="#B3C9EB"/>
<path d="M166.731 186.9V258.714H162.223C153.222 258.721 144.282 257.24 135.763 254.334V168.309L166.731 186.9Z" fill="#88A5D2"/>
<path d="M166.731 463.201V513.328H135.734V499.343L136.449 499.128C141.509 497.615 146.245 495.176 150.414 491.935C159.453 484.903 165.323 474.566 166.731 463.201V463.201Z" fill="#88A5D2"/>
<path d="M231.548 156.873V258.793C230.657 258.734 229.745 258.704 228.834 258.704H202.001V144.476L225.953 154.53L231.548 156.873Z" fill="#B3C9EB"/>
<path d="M228.834 353.98C229.745 353.98 230.657 353.98 231.548 353.902V513.328H202.001V360.095C204.676 358.786 207.448 357.685 210.292 356.802C215.377 355.204 220.648 354.272 225.972 354.029H226.237C227.099 354.029 227.971 353.97 228.834 353.97V353.98Z" fill="#B3C9EB"/>
<path d="M201.992 144.476V258.714H180.069V152.1L197.553 146.024L201.992 144.476Z" fill="#819FCC"/>
<path d="M196.141 363.319C198.035 362.127 199.998 361.051 202.021 360.095V513.328H180.079V377.794C184.543 372.064 189.98 367.165 196.141 363.319Z" fill="#819FCC"/>
<path d="M455.586 164.634H378.451V156.383H455.586V164.634Z" fill="#D1DEF5"/>
<path d="M284.586 203.687L317.514 202.629V160.508L284.586 182.656V203.687Z" fill="#D1DEF5"/>
<path d="M455.586 191.643H378.451V183.391H455.586V191.643Z" fill="#D1DEF5"/>
<path d="M455.586 218.652H378.451V210.4H455.586V218.652Z" fill="#D1DEF5"/>
<path d="M455.586 245.661H378.451V237.409H455.586V245.661Z" fill="#D1DEF5"/>
<path d="M455.586 272.66H378.451V264.408H455.586V272.66Z" fill="#D1DEF5"/>
<path d="M455.586 299.668H378.451V291.417H455.586V299.668Z" fill="#D1DEF5"/>
<path d="M455.586 326.687H378.451V318.435H455.586V326.687Z" fill="#D1DEF5"/>
<path d="M455.586 353.696H378.451V345.444H455.586V353.696Z" fill="#D1DEF5"/>
<path d="M455.586 380.705H378.451V372.453H455.586V380.705Z" fill="#D1DEF5"/>
<path d="M455.586 407.704H378.451V399.452H455.586V407.704Z" fill="#D1DEF5"/>
<path d="M455.586 434.712H378.451V426.461H455.586V434.712Z" fill="#D1DEF5"/>
<path d="M455.586 461.721H378.451V453.47H455.586V461.721Z" fill="#D1DEF5"/>
<path d="M455.586 488.73H378.451V480.478H455.586V488.73Z" fill="#D1DEF5"/>
<path d="M317.524 282.665H284.596V215.898H317.524V282.665Z" fill="#D1DEF5"/>
<path d="M317.524 364.799H284.596V298.032H317.524V364.799Z" fill="#D1DEF5"/>
<path d="M317.524 446.943H284.596V380.175H317.524V446.943Z" fill="#D1DEF5"/>
<path d="M317.524 498.265H284.596V457.595H317.524V498.265Z" fill="#D1DEF5"/>
<path d="M123.915 166.437H108.48V158.068H123.915V166.437Z" fill="#D1DEF5"/>
<path d="M227.727 177.002H206.255V152.521L227.727 162.596V177.002Z" fill="#D1DEF5"/>
<path d="M95.3386 158.078V166.447H80.9424C81.2965 163.633 81.797 160.84 82.4418 158.078H95.3386Z" fill="#D1DEF5"/>
<path d="M123.915 188.448H108.48V180.079H123.915V188.448Z" fill="#D1DEF5"/>
<path d="M95.3387 180.079V188.448H81.1189C80.7226 185.673 80.4707 182.88 80.3643 180.079H95.3387Z" fill="#D1DEF5"/>
<path d="M123.915 210.449H108.48V202.08H123.915V210.449Z" fill="#D1DEF5"/>
<path d="M95.3386 202.08V210.439H87.4986C86.2669 207.717 85.1936 204.926 84.2842 202.08H95.3386Z" fill="#D1DEF5"/>
<path d="M123.915 232.46H108.48V224.091H123.915V232.46Z" fill="#D1DEF5"/>
<path d="M123.925 246.102V249.218C122.128 248.264 120.378 247.251 118.672 246.18L118.545 246.102H123.925Z" fill="#D1DEF5"/>
<path d="M227.717 196.308H206.245V184.264H227.717V196.308Z" fill="#D1DEF5"/>
<path d="M227.727 216.898H219.838V204.853H227.727V216.898Z" fill="#D1DEF5"/>
<path d="M214.134 216.898H206.245V204.853H214.134V216.898Z" fill="#D1DEF5"/>
<path d="M227.717 240.692H206.245V228.648H227.717V240.692Z" fill="#D1DEF5"/>
<path d="M219.828 249.238H227.717V258.714H219.828V249.238Z" fill="#D1DEF5"/>
<path d="M206.255 249.238H214.144V258.714H206.255V249.238Z" fill="#D1DEF5"/>
<path d="M227.717 373.129H206.245V361.085H227.717V373.129Z" fill="#D1DEF5"/>
<path d="M227.727 393.729H219.838V381.685H227.727V393.729Z" fill="#D1DEF5"/>
<path d="M214.134 393.729H206.245V381.685H214.134V393.729Z" fill="#D1DEF5"/>
<path d="M227.717 417.161H206.245V405.116H227.717V417.161Z" fill="#D1DEF5"/>
<path d="M227.727 437.76H219.838V425.716H227.727V437.76Z" fill="#D1DEF5"/>
<path d="M214.134 437.76H206.245V425.716H214.134V437.76Z" fill="#D1DEF5"/>
<path d="M227.717 461.192H206.245V449.148H227.717V461.192Z" fill="#D1DEF5"/>
<path d="M227.727 481.792H219.838V469.747H227.727V481.792Z" fill="#D1DEF5"/>
<path d="M214.134 481.792H206.245V469.747H214.134V481.792Z" fill="#D1DEF5"/>
<path opacity="0.51" d="M541.679 415.269V505.145C541.674 509.658 538.019 513.317 533.506 513.328L480.4 437.701L455.586 402.353L453.538 399.413L440.377 380.656L434.585 372.404L421.414 353.686L415.632 345.434L402.47 326.687L396.659 318.426L395.934 317.387L388.094 306.185L383.537 299.678L378.48 292.475L345.964 246.18L322.62 212.948L315.417 202.688L295.964 175.003L288.673 164.605L266.456 132.951L260.958 125.111L239.702 94.8484H316.74L338.006 125.14L343.484 132.98L349.57 141.643L378.901 183.421L384.683 191.672L388.074 196.504L395.914 207.715L397.825 210.43L403.627 218.681L416.788 237.438L422.59 245.69L435.751 264.447L441.553 272.699L454.704 291.456L455.577 292.681L480.4 328L541.679 415.269Z" fill="white"/>
<path opacity="0.51" d="M519.08 513.328H482.213L480.4 510.76L445.982 461.721L440.181 453.47L427.009 434.712L421.227 426.461L408.056 407.704L402.255 399.452L395.934 390.446L389.083 380.695L388.074 379.244L383.301 372.443L345.963 319.278L322.62 286.007L317.524 278.755L284.586 231.852L278.275 222.866L233.832 159.548L225.962 148.337L215.153 132.951L209.675 125.14L188.399 94.8484H225.267L225.962 95.8284L233.832 107.03L246.542 125.14L252.03 132.951L278.892 171.23L286.174 181.588L301.305 203.148L310.252 215.898L317.524 226.237L322.62 233.499L345.963 266.76L382.233 318.426L388.035 326.687L388.074 326.726L395.934 337.937L401.206 345.434L406.998 353.686L420.169 372.443L425.951 380.695L439.122 399.452L444.924 407.704L480.4 458.252L519.08 513.328Z" fill="white"/>
<path opacity="0.51" d="M455.42 513.328H432.635L415.377 488.73L409.585 480.478L396.414 461.721L395.934 461.055L390.622 453.47L388.064 449.844L345.924 389.877L322.62 356.616L317.524 349.354L284.596 302.461L278.285 293.465L233.832 230.157L231.548 226.913L225.953 218.946L224.522 216.898L219.828 210.224L210.028 196.308L206.215 190.879L201.962 184.812L180.04 153.59L165.545 132.951L160.067 125.111L140.781 97.6708C147.566 95.8402 154.559 94.8916 161.586 94.8484L182.852 125.13L188.33 132.97L197.513 146.044L201.962 152.384L206.215 158.441L219.249 177.061L224.345 184.322L225.913 186.557L227.687 189.066L231.509 194.524L233.793 197.758L278.245 261.076L284.557 270.072L293.435 282.724L304.215 298.1L317.465 316.975L322.561 324.227L345.905 357.498L378.48 403.695L381.283 407.704L388.094 417.406L394.464 426.461L395.963 428.607L400.255 434.712L413.427 453.47L419.209 461.721L432.38 480.478L438.172 488.73L455.42 513.328Z" fill="white"/>
<path d="M547.167 125.14V132.98H93.0059C94.7182 130.256 96.5934 127.638 98.6213 125.14L547.167 125.14Z" fill="#6E8EC8"/>
<path d="M231.548 353.882C232.313 353.882 233.087 353.784 233.832 353.696V513.328H225.992V354.029H226.256C227.119 354.029 227.991 353.97 228.853 353.97C229.745 353.98 230.656 353.98 231.548 353.882Z" fill="#6E8EC8"/>
<path d="M233.832 94.9954V258.979C233.077 258.9 232.313 258.832 231.548 258.802C230.784 258.773 229.745 258.714 228.834 258.714H225.953V94.8778L233.832 94.9954Z" fill="#6E8EC8"/>
<path d="M388.064 94.8484H395.934V513.328H388.064V94.8484Z" fill="#6E8EC8"/>
<path d="M889.814 887.708H345.993C345.993 807.171 415.377 738.12 513.974 709.142C523.16 706.431 532.591 704.079 542.267 702.086C567.154 697.026 592.488 694.494 617.884 694.53C768.069 694.53 889.814 781.015 889.814 887.708Z" fill="#6E8EC8"/>
<path d="M835.621 585.24H848.978V688.091H835.621V585.24Z" fill="#92B0E7"/>
<path d="M835.621 679.654H848.978V688.091H835.621V679.654Z" fill="#6E8EC8"/>
<path d="M848.968 585.26V604.762C845.407 608.724 840.769 611.564 835.621 612.935V585.26L848.968 585.26Z" fill="#6E8EC8"/>
<path d="M904.622 873.311H780.084C776.487 873.311 773.783 868.95 774.469 864.266L797.92 704.82C798.851 698.45 803.065 693.854 807.955 693.854H876.79C881.69 693.854 885.885 698.45 886.826 704.82L910.228 864.266C910.924 868.95 908.219 873.311 904.622 873.311Z" fill="#6E8EC8"/>
<path d="M904.622 873.311H870.058L843.696 693.805H876.771C881.671 693.805 885.865 698.401 886.796 704.781L910.228 864.276C910.914 868.96 908.219 873.311 904.622 873.311Z" fill="#547DBA"/>
<path d="M900.614 873.311L900.075 877.535L898.576 888.982H878.182L876.692 877.535L876.144 873.311H900.614Z" fill="#547DBA"/>
<path d="M816.432 873.311L815.873 877.535L814.384 888.982H794L792.5 877.535L791.952 873.311H816.432Z" fill="#6E8EC8"/>
<path d="M805.65 401.986C806.164 394.435 812.702 388.729 820.254 389.242C827.806 389.756 833.511 396.294 832.998 403.846L817.29 634.847C816.777 642.399 810.238 648.105 802.687 647.591C795.135 647.078 789.429 640.54 789.943 632.988L805.65 401.986Z" fill="#E9F1FF"/>
<path d="M855.995 456.047V580.742C855.995 595.897 843.71 608.182 828.555 608.182H811.474L828.594 428.636C843.749 428.636 856.034 440.922 856.034 456.076L855.995 456.047Z" fill="#92B0E7"/>
<path d="M839.678 430.979L827.644 608.153H811.474L828.594 428.636C832.412 428.63 836.189 429.428 839.678 430.979Z" fill="#6E8EC8"/>
<path d="M813.32 393.816C813.85 386.246 820.416 380.54 827.985 381.07C835.554 381.6 841.261 388.165 840.731 395.734L823.015 648.819C822.485 656.389 815.92 662.095 808.35 661.565C800.781 661.036 795.075 654.47 795.604 646.901L813.32 393.816Z" fill="#92B0E7"/>
<path d="M811.64 685.828H872.861C877.261 685.828 880.828 689.395 880.828 693.795H803.712C803.712 689.41 807.255 685.849 811.64 685.828Z" fill="#92B0E7"/>
<path d="M816.432 873.311L815.873 877.535H792.5L791.952 873.311H816.432Z" fill="#547DBA"/>
<path d="M900.614 873.311L900.075 877.535H876.692L876.144 873.311H900.614Z" fill="#416FA5"/>
<circle cx="309.635" cy="619.589" r="34.9958" fill="#6FEAF7"/>
<path d="M384.808 661.793C394.882 671.868 394.882 688.202 384.808 698.277C374.733 708.352 358.398 708.352 348.323 698.277L292.719 642.674C282.645 632.599 282.645 616.264 292.719 606.189C302.794 596.114 319.129 596.114 329.204 606.189L384.808 661.793Z" fill="#8C285C"/>
<path d="M285.527 628.654C288.252 620.066 295.258 613.521 304.011 611.385C312.764 609.248 321.998 611.831 328.373 618.198L383.978 673.803C387.796 677.587 390.33 682.476 391.22 687.778C394.136 678.6 391.686 668.561 384.87 661.759L329.264 606.144C321.326 598.206 309.166 596.312 299.189 601.459C289.212 606.607 283.708 617.614 285.576 628.684L285.527 628.654Z" fill="#72194C"/>
<path d="M473.54 678.634C488.847 672.274 495.6 653.488 488.612 636.671C483.34 623.843 471.58 615.865 459.467 615.64C455.637 615.548 451.831 616.263 448.295 617.737L363.78 652.792C348.472 659.142 341.72 677.939 348.707 694.755C355.685 711.582 373.766 720.059 389.074 713.709L473.54 678.634Z" fill="#EA7D7D"/>
<path d="M444.081 681.006C423.021 666.247 419.042 643.913 426.667 626.685L472.207 608.917C479.442 606.099 487.65 607.659 493.346 612.935C497.971 617.22 501.561 622.502 503.842 628.38C515.406 658.005 490.876 692.805 451.549 684.24C448.869 683.671 446.33 682.572 444.081 681.006Z" fill="#EA7D7D"/>
<circle cx="317.308" cy="513.945" r="17.1598" fill="#54285B"/>
<path d="M524.02 850.281C524.03 862.809 523.073 875.318 521.158 887.698H94.7211C92.806 875.318 91.8493 862.809 91.8595 850.281C91.8595 763.159 137.135 687.327 203.952 648.117C235.449 629.515 271.359 619.7 307.94 619.697C377.441 619.697 439.26 654.722 478.822 709.132C507.154 748.136 524.02 797.107 524.02 850.281Z" fill="#6E8EC8"/>
<path d="M622.049 887.708H345.993C345.993 807.171 400.873 738.12 478.813 709.142C486.144 706.407 493.612 704.052 501.186 702.086C566.376 747.176 611.191 812.924 622.049 887.708Z" fill="#5A7DAF"/>
<path d="M793.312 811.862L784.541 879.672L437.328 834.762C419.282 832.427 406.545 815.906 408.879 797.86L413.424 762.726L793.312 811.862Z" fill="#2B234C"/>
<path d="M786.504 864.517L784.543 879.679L404.655 830.542L406.616 815.38L786.504 864.517Z" fill="#1D183A"/>
<path d="M816.965 823.719L810.429 874.248L785.665 871.045L792.201 820.516L816.965 823.719Z" fill="#F0A284"/>
<path d="M800.169 821.548L793.633 872.077L785.654 871.045L792.19 820.516L800.169 821.548Z" fill="#EA7D7D"/>
<path d="M794.745 872.959L804.652 847.655C797.96 836.614 799.329 822.485 808.017 812.935C816.705 803.384 830.641 800.688 842.265 806.309L816.873 858.778L804.211 884.954L798.331 882.102C794.932 880.458 793.37 876.475 794.745 872.959Z" fill="#2B234C"/>
<path d="M802.173 822.626C810.03 809.931 826.209 805.227 839.649 811.728L842.265 806.309C827.773 799.3 810.344 805.363 803.33 819.852C802.893 820.755 802.507 821.681 802.173 822.626H802.173Z" fill="#3D325D"/>
<path d="M805.681 891.716C807.717 892.705 810.17 892.024 811.405 890.128C811.523 889.969 811.625 889.798 811.708 889.619L849.566 811.385C849.671 811.169 849.763 810.947 849.84 810.719C851.011 807.427 849.522 803.781 846.381 802.252C843.224 800.717 839.419 801.812 837.561 804.79C837.372 805.103 837.208 805.431 837.071 805.77L835.767 808.857L832.083 817.677L830.368 821.783L826.683 830.603L824.958 834.709L821.273 843.529L819.558 847.616L815.864 856.436L814.149 860.542L810.454 869.362L808.768 873.38L805.074 882.2L803.496 885.973C803.45 886.081 803.41 886.193 803.378 886.306C803.035 887.28 803.035 888.341 803.378 889.315C803.808 890.382 804.633 891.243 805.681 891.716Z" fill="#3D325D"/>
<path d="M835.797 808.847L847.949 814.727L849.909 810.738L837.59 804.78C837.401 805.093 837.237 805.421 837.1 805.76L835.797 808.847Z" fill="#2B234C"/>
<path d="M830.397 821.754L841.863 827.3L843.794 823.302L832.112 817.647L830.397 821.754Z" fill="#2B234C"/>
<path d="M824.987 834.65L835.777 839.864L837.718 835.875L826.712 830.544L824.987 834.65Z" fill="#2B234C"/>
<path d="M819.587 847.537L829.701 852.437L831.632 848.449L821.302 843.451L819.587 847.537Z" fill="#2B234C"/>
<path d="M814.178 860.444L823.616 865.011L825.546 861.012L815.893 856.338L814.178 860.444Z" fill="#2B234C"/>
<path d="M808.769 873.341L817.53 877.574L819.47 873.586L810.484 869.235L808.769 873.341Z" fill="#2B234C"/>
<path d="M803.672 886.385L811.444 890.148L813.404 886.159L805.093 882.141L803.516 885.914L803.672 886.385Z" fill="#2B234C"/>
<path d="M455.696 719.747L467.471 730.613C488.632 750.14 489.957 783.124 470.43 804.285L448.007 828.585C441.84 835.267 431.424 835.686 424.742 829.519L386.751 794.462L455.696 719.747Z" fill="#3D325D"/>
<path d="M386.74 794.484L333.905 745.729L402.863 671L455.698 719.754L386.74 794.484Z" fill="#3CC3DA"/>
<path d="M384.346 638.333L420.17 700.381L386.162 720.016C356.304 737.254 318.125 727.024 300.887 697.166L256.047 619.501C254.641 617.066 254.26 614.171 254.987 611.455C255.715 608.739 257.492 606.423 259.928 605.016C303.519 579.849 359.26 594.784 384.427 638.376L384.346 638.333Z" fill="#3CC3DA"/>
<path d="M301.589 560.76V598.059C301.585 599.059 301.517 600.057 301.383 601.048C299.852 612.357 289.808 620.537 278.423 619.748C267.039 618.959 258.22 609.471 258.263 598.059V560.76C258.263 548.799 267.96 539.102 279.921 539.102C291.883 539.102 301.579 548.799 301.579 560.76H301.589Z" fill="#F0A284"/>
<path d="M301.589 560.76V598.059C301.585 599.059 301.516 600.057 301.383 601.048C284.448 601.27 268.425 593.39 258.263 579.841V560.76C258.263 548.799 267.96 539.102 279.921 539.102C291.883 539.102 301.579 548.799 301.579 560.76H301.589Z" fill="#EA7D7D"/>
<path d="M333.91 745.735L296.915 690.267L347.698 651.586L425.559 730.427L333.91 745.735Z" fill="#3CC3DA"/>
<path d="M301.589 596.099V598.059C301.589 599.039 301.364 600.068 301.384 601.048C301.589 612.916 290.466 622.216 279.187 621.834C267.427 621.442 258.273 609.319 258.273 597.569V596.099H301.589Z" fill="#3CC3DA"/>
<path d="M500.789 677.082C514.14 663.731 535.786 663.731 549.137 677.082C562.488 690.433 562.488 712.08 549.137 725.43L450.743 823.825C437.392 837.176 415.746 837.175 402.395 823.825C389.044 810.474 389.044 788.827 402.395 775.476L500.789 677.082Z" fill="#3D325D"/>
<path d="M449.834 887.708H94.7209C92.9661 876.379 92.0164 864.939 91.8789 853.476C91.8789 852.418 91.8789 851.35 91.8789 850.281C91.8789 792.883 111.479 740.394 144.035 700.047C157.259 683.576 172.769 669.079 190.095 656.996C194.603 653.847 199.222 650.887 203.952 648.117C333.919 676.949 432.939 771.46 449.834 887.708Z" fill="#92B0E7"/>
<path d="M334.468 887.708H93.7998C92.6238 876.555 91.9705 865.145 91.8398 853.476C91.8398 852.418 91.8398 851.35 91.8398 850.281C91.8398 792.883 111.44 740.394 143.995 700.047C269.298 740.316 326.707 808.896 334.468 887.708Z" fill="#6E8EC8"/>
<path d="M367.448 650.319C366.233 648.721 366.543 646.44 368.141 645.224L433.253 595.693C434.852 594.477 437.133 594.787 438.348 596.386C439.564 597.984 439.254 600.265 437.656 601.481L372.543 651.011C370.945 652.227 368.664 651.917 367.448 650.319Z" fill="#3D325D"/>
<path d="M422.863 603.96C422.115 602.975 422.306 601.57 423.29 600.821L428.515 596.847C429.499 596.098 430.905 596.289 431.654 597.273L432.323 598.153C433.072 599.138 432.881 600.543 431.897 601.292L426.672 605.267C425.687 606.016 424.282 605.825 423.533 604.84L422.863 603.96Z" fill="#3D325D"/>
<path d="M413.075 611.401C412.326 610.417 412.517 609.011 413.502 608.262L418.727 604.288C419.711 603.539 421.117 603.73 421.866 604.714L422.535 605.595C423.284 606.579 423.093 607.985 422.109 608.734L416.884 612.708C415.899 613.457 414.494 613.266 413.745 612.281L413.075 611.401Z" fill="#3D325D"/>
<path d="M403.297 618.842C402.548 617.858 402.739 616.452 403.724 615.703L408.948 611.729C409.933 610.98 411.338 611.171 412.087 612.156L412.757 613.036C413.506 614.02 413.315 615.426 412.33 616.175L407.106 620.149C406.121 620.898 404.716 620.707 403.967 619.723L403.297 618.842Z" fill="#3D325D"/>
<path d="M393.515 626.291C392.766 625.307 392.957 623.901 393.941 623.152L399.166 619.178C400.151 618.429 401.556 618.62 402.305 619.605L402.975 620.485C403.724 621.469 403.533 622.875 402.548 623.624L397.323 627.598C396.339 628.347 394.933 628.156 394.184 627.172L393.515 626.291Z" fill="#3D325D"/>
<path d="M375.616 640.593C374.682 639.365 374.92 637.613 376.148 636.679L388.939 626.949C390.167 626.015 391.919 626.253 392.853 627.481C393.787 628.708 393.549 630.461 392.321 631.395L379.53 641.125C378.302 642.059 376.55 641.821 375.616 640.593Z" fill="#3D325D"/>
<circle cx="258.273" cy="638.513" r="34.9958" fill="#6FEAF7"/>
<path d="M318.353 700.325C325.143 712.851 320.492 728.51 307.966 735.3C295.44 742.09 279.781 737.44 272.991 724.913L235.518 655.781C228.728 643.255 233.378 627.596 245.905 620.806C258.431 614.016 274.09 618.667 280.88 631.193L318.353 700.325Z" fill="#3CC3DA"/>
<path d="M232.587 640.336C237.639 632.873 246.219 628.588 255.22 629.033C264.221 629.477 272.337 634.587 276.629 642.512L314.104 711.68C316.681 716.392 317.71 721.796 317.044 727.125C322.448 719.154 322.959 708.836 318.367 700.371L280.872 631.202C275.53 621.334 264.421 616.051 253.394 618.137C242.368 620.223 233.956 629.198 232.587 640.336H232.587Z" fill="#6FEAF7"/>
<path d="M397.414 696.98C411.398 688.072 414.809 668.403 405.028 653.037C397.571 641.326 384.605 635.505 372.688 637.357C368.898 637.933 365.269 639.295 362.036 641.355L284.9 690.473C270.915 699.381 267.515 719.05 277.295 734.416C287.095 749.782 306.342 754.996 320.327 746.117L397.414 696.98Z" fill="#F0A284"/>
<path d="M317.557 732.249C313.747 734.582 308.767 733.385 306.434 729.574C304.1 725.764 305.298 720.784 309.108 718.45L344.152 696.992C347.962 694.659 352.943 695.857 355.276 699.667C357.609 703.477 356.411 708.458 352.601 710.791L317.557 732.249Z" fill="#FCB798"/>
<path d="M368.787 704.418C345.483 693.521 337.721 672.206 342.249 653.919L384.046 628.556C390.685 624.532 399.039 624.654 405.557 628.87C410.851 632.296 415.298 636.88 418.562 642.276C435.065 669.462 416.905 707.936 376.696 706.339C373.958 706.234 371.269 705.581 368.787 704.418Z" fill="#F0A284"/>
<path d="M380.511 621.305C382.954 616.783 388.599 615.098 393.121 617.541C397.642 619.984 399.327 625.629 396.885 630.151L382.277 657.19C379.834 661.711 374.189 663.396 369.667 660.954C365.146 658.511 363.461 652.865 365.903 648.344L380.511 621.305Z" fill="#F0A284"/>
<path d="M421.256 616.342C425.707 613.772 431.397 615.297 433.967 619.747C436.537 624.198 435.012 629.889 430.561 632.458L403.946 647.825C399.495 650.394 393.804 648.869 391.235 644.419C388.665 639.968 390.19 634.277 394.641 631.708L421.256 616.342Z" fill="#F0A284"/>
<path d="M422.527 635.849C426.977 633.28 432.668 634.805 435.238 639.255C437.807 643.706 436.282 649.397 431.832 651.966L405.216 667.333C400.766 669.902 395.075 668.377 392.505 663.927C389.936 659.476 391.461 653.785 395.911 651.216L422.527 635.849Z" fill="#F0A284"/>
<path d="M419.253 652.884C423.704 650.315 429.395 651.839 431.964 656.29C434.534 660.741 433.009 666.431 428.558 669.001L401.943 684.367C397.492 686.937 391.801 685.412 389.232 680.961C386.662 676.511 388.187 670.82 392.638 668.25L419.253 652.884Z" fill="#F0A284"/>
<ellipse cx="393.729" cy="672.666" rx="10.8976" ry="12.9066" fill="#FCB798"/>
<path d="M294.896 591.767C280.835 592.6 267.019 587.81 256.491 578.453C245.962 569.095 239.585 555.937 238.762 541.875L237.36 518.698C236.769 508.559 241.547 498.854 249.943 493.14C254.271 490.182 259.322 488.458 264.555 488.152L280.235 487.231L288.261 486.76L290.545 486.623L294.004 486.417C301.049 485.989 307.975 488.382 313.252 493.069C318.529 497.756 321.724 504.351 322.13 511.397L322.473 517.473L322.571 519.012V519.502L322.806 523.334L322.904 525.068L324.864 558.006C325.902 575.601 312.49 590.711 294.896 591.767Z" fill="#F0A284"/>
<path d="M322.493 517.473L322.591 519.012C313.663 522.266 271.258 521.197 257.793 513.945C255.912 512.965 248.973 501.94 249.953 493.14C250.316 490.102 250.757 487.819 251.217 487.142L267.711 486.721L279.53 486.417C283.293 486.319 286.987 486.417 290.574 486.623C296.024 486.956 301.442 487.69 306.783 488.818C315.66 492.937 321.564 501.591 322.16 511.358L322.493 517.473Z" fill="#EA7D7D"/>
<path d="M239.947 506.938H250.59V533.398C250.598 537.435 249.002 541.309 246.153 544.169C243.304 547.028 239.436 548.639 235.4 548.647H234.253V512.671C234.253 509.52 236.796 506.96 239.947 506.938V506.938Z" fill="#64356A"/>
<circle cx="244.504" cy="499.569" r="19.5706" fill="#64356A"/>
<path d="M231.01 501.352C230.998 505.186 232.124 508.938 234.244 512.132C235.809 514.508 237.872 516.514 240.29 518.012V547.824C238.714 548.37 237.058 548.648 235.39 548.647H234.253V516.219C225.686 510.629 222.859 499.39 227.761 490.412C232.664 481.433 243.646 477.735 252.981 481.919C252.198 481.824 251.409 481.778 250.619 481.782C239.802 481.776 231.026 490.535 231.01 501.352Z" fill="#54285B"/>
<circle cx="275.384" cy="534.604" r="3.4986" fill="#151D3A"/>
<circle cx="307.469" cy="534.604" r="3.4986" fill="#151D3A"/>
<path d="M708.203 836.49L673.775 874.049L655.368 857.176L689.796 819.617L708.203 836.49Z" fill="#F0A284"/>
<path d="M695.728 825.046L661.3 862.605L655.369 857.168L689.797 819.61L695.728 825.046Z" fill="#EA7D7D"/>
<path d="M661.7 864.09L684.368 849.105C685.237 836.22 694.486 825.444 707.092 822.632C719.697 819.819 732.649 825.64 738.914 836.934L687.954 865.236L662.543 879.348L659.368 873.635C657.533 870.332 658.549 866.174 661.7 864.09Z" fill="#2B234C"/>
<path d="M696.725 827.202C710.455 821.339 726.395 826.802 733.642 839.854L738.904 836.914C735.153 830.154 728.869 825.163 721.436 823.038C714.003 820.913 706.03 821.829 699.273 825.585C698.394 826.077 697.544 826.617 696.725 827.202H696.725Z" fill="#3D325D"/>
<path d="M659.838 885.728C660.945 887.696 663.341 888.535 665.434 887.688C665.616 887.619 665.793 887.537 665.963 887.443L741.952 845.244C742.166 845.131 742.369 845 742.56 844.852C745.308 842.798 746.116 839.03 744.451 836.03C742.787 833.029 739.162 831.72 735.965 832.965C735.624 833.107 735.296 833.277 734.985 833.474L732.152 835.248L724.067 840.325L720.304 842.696L712.229 847.763L708.466 850.125L700.381 855.201L696.618 857.563L688.533 862.629L684.769 865.001L676.694 870.068L672.931 872.429L664.846 877.506L661.377 879.681L661.093 879.887C659.273 881.229 658.732 883.712 659.828 885.689L659.838 885.728Z" fill="#3D325D"/>
<path d="M732.162 835.287L738.708 847.047L742.628 844.891L736.003 832.965C735.663 833.107 735.335 833.277 735.023 833.474L732.162 835.287Z" fill="#2B234C"/>
<path d="M720.313 842.735L726.497 853.868L730.378 851.712L724.077 840.364L720.313 842.735Z" fill="#2B234C"/>
<path d="M708.475 850.164L714.286 860.65L718.177 858.494L712.238 847.802L708.475 850.164Z" fill="#2B234C"/>
<path d="M696.627 857.602L702.086 867.422L705.957 865.275L700.39 855.24L696.627 857.602Z" fill="#2B234C"/>
<path d="M684.779 865.04L689.875 874.203L693.756 872.047L688.542 862.669L684.779 865.04Z" fill="#2B234C"/>
<path d="M672.94 872.469L677.664 880.985L681.545 878.829L676.704 870.107L672.94 872.469Z" fill="#2B234C"/>
<path d="M661.259 880.24L665.453 887.796L669.373 885.64L664.895 877.574L661.425 879.75L661.259 880.24Z" fill="#2B234C"/>
<path d="M697.174 819.948L649.557 869.016L501.775 725.606C488.235 712.459 487.907 690.828 501.043 677.277C514.194 663.725 535.84 663.4 549.392 676.551L697.167 819.955L697.174 819.948Z" fill="#3D325D"/>
<path d="M274.904 463.74H334.468V477.46C334.468 497.567 318.168 513.867 298.061 513.867H238.497V500.147C238.497 480.04 254.797 463.74 274.904 463.74Z" fill="#64356A"/>
<path d="M334.459 463.789V477.509C334.461 487.163 330.627 496.422 323.801 503.249C316.975 510.075 307.715 513.909 298.061 513.906H288.614C308.716 513.906 325.011 497.611 325.011 477.509V463.789H334.459Z" fill="#7D5384"/>
<path d="M271.993 475.696H291.505C294.753 475.696 297.385 478.329 297.385 481.576C297.38 485.688 295.742 489.629 292.83 492.533C289.919 495.437 285.974 497.065 281.862 497.06H262.35C259.103 497.06 256.47 494.427 256.47 491.18C256.47 482.618 263.411 475.676 271.974 475.676L271.993 475.696Z" fill="#7D5384"/>
<circle cx="242.623" cy="546.256" r="13.5044" fill="#F0A284"/>
<path d="M238.536 545.452C238.832 547.773 240.475 549.697 242.721 550.352C243.256 550.487 243.823 550.348 244.235 549.981C244.647 549.614 244.851 549.067 244.779 548.52L243.877 540.984C243.806 540.408 243.445 539.908 242.92 539.66C242.396 539.412 241.781 539.449 241.29 539.759C239.343 540.959 238.268 543.18 238.536 545.452Z" fill="#EA7D7D"/>
<path d="M300.472 548.863C300.547 551.164 299.701 553.401 298.12 555.076C297.924 555.282 297.728 555.468 297.522 555.654C296.019 556.99 294.094 557.757 292.083 557.82H291.731C289.897 557.89 288.09 557.367 286.576 556.33C284.488 554.92 283.121 552.669 282.832 550.166C282.832 549.931 282.783 549.686 282.773 549.451C282.758 549.005 282.92 548.572 283.224 548.245C283.528 547.916 283.953 547.725 284.4 547.716L298.708 547.236C299.16 547.209 299.603 547.368 299.936 547.674C300.269 547.981 300.462 548.41 300.472 548.863Z" fill="#962F4A"/>
<path d="M291.887 556.487C291.908 556.937 291.878 557.387 291.799 557.83H291.75C287.246 557.982 283.379 554.652 282.861 550.176C283.48 549.975 284.123 549.86 284.772 549.833C286.6 549.764 288.38 550.428 289.716 551.678C291.052 552.927 291.834 554.659 291.887 556.487Z" fill="#E1617F"/>
<path d="M298.424 547.256C298.424 548.951 295.837 550.401 292.612 550.509C289.388 550.617 286.732 549.353 286.605 547.648L298.424 547.256Z" fill="white"/>
</svg>
