<svg width="1000" height="1000" viewBox="0 0 1000 1000" fill="none" xmlns="http://www.w3.org/2000/svg">
<path d="M979.269 473.315C979.267 475.725 979.09 478.133 978.74 480.518C975.19 504.11 954.92 521.559 931.063 521.56C915.825 521.571 902.969 532.904 901.045 548.02C900.879 549.287 900.797 550.564 900.8 551.842V648.597C900.799 650.935 900.668 653.271 900.408 655.595C900.142 658.036 899.723 660.458 899.154 662.847C896.511 674.099 890.778 684.39 882.602 692.56C881.514 693.638 880.387 694.687 879.221 695.686C867.929 705.397 853.522 710.725 838.629 710.7C816.639 710.704 798.302 727.522 796.401 749.43C796.283 750.635 796.234 751.85 796.234 753.085C796.229 764.33 800.694 775.115 808.646 783.065C816.598 791.015 827.385 795.478 838.629 795.47H905.779C922.895 795.463 939.311 802.264 951.408 814.374C952.231 815.188 953.015 816.021 953.779 816.883C963.755 827.941 969.573 842.126 970.233 857.004C970.302 857.984 970.322 858.964 970.322 860.013C970.305 895.651 941.416 924.535 905.779 924.546H85.264C68.1526 924.559 51.7389 917.765 39.6421 905.663C27.5453 893.561 20.7591 877.144 20.78 860.032C20.78 859.052 20.78 858.072 20.8486 857.024C22.4301 822.596 50.7998 795.495 85.264 795.49H169.417C180.659 795.495 191.443 791.031 199.393 783.081C207.343 775.131 211.807 764.347 211.802 753.105C211.802 751.87 211.743 750.655 211.635 749.449C209.771 727.524 191.421 710.682 169.417 710.7H156.206C137.727 710.719 119.621 705.496 103.992 695.637C97.8074 691.749 92.0808 687.176 86.9202 682.006C81.1642 676.245 76.1443 669.793 71.9752 662.798C70.564 660.446 69.2704 658.025 68.0552 655.546C65.8981 651.119 64.0862 646.532 62.6358 641.826C59.6918 632.397 58.1917 622.577 58.1866 612.7C58.1874 609.043 58.3869 605.389 58.7844 601.753C64.3583 552.164 106.305 514.682 156.206 514.7H228.383C248.772 514.686 266.388 500.449 270.68 480.518C271.321 477.538 271.649 474.5 271.66 471.453C271.655 447.582 252.302 428.235 228.432 428.235H135.695C103.16 428.263 72.5519 412.81 53.2572 386.614C41.6695 370.94 34.8197 352.271 33.52 332.822C33.3436 330.489 33.275 328.137 33.275 325.766C33.275 323.541 33.3338 321.336 33.5004 319.151C34.7219 299.735 41.4718 281.073 52.9534 265.368C72.219 238.898 102.995 223.253 135.734 223.287C139.681 223.295 143.585 222.481 147.2 220.896C148.193 220.467 149.159 219.976 150.091 219.426C152.15 218.233 154.05 216.784 155.746 215.114C156.858 214.018 157.88 212.835 158.803 211.576C159.72 210.321 160.532 208.994 161.234 207.607C162.65 204.845 163.588 201.863 164.007 198.787C164.207 197.437 164.309 196.075 164.311 194.71V174.336C164.311 173.356 164.311 172.376 164.389 171.465C164.475 169.823 164.651 168.187 164.918 166.565C165.388 163.56 166.143 160.607 167.172 157.745C167.486 156.882 167.819 156.04 168.152 155.207C168.486 154.374 168.838 153.639 169.23 152.874C170.743 149.747 172.586 146.79 174.728 144.054C176.082 142.332 177.542 140.695 179.099 139.154C179.795 138.478 180.53 137.812 181.265 137.194C184.385 134.484 187.836 132.179 191.535 130.334C193.078 129.566 194.661 128.882 196.278 128.286C200.285 126.805 204.47 125.859 208.724 125.473H208.822C210.283 125.346 211.762 125.277 213.242 125.277H591.326C617.251 125.24 638.692 145.455 640.179 171.337V172.572C640.179 172.572 640.179 173.66 640.179 174.209C640.175 176.984 640.411 179.755 640.885 182.49C642.822 193.769 648.647 204.015 657.349 211.449C657.77 211.811 658.211 212.164 658.652 212.507C667.303 219.423 678.055 223.18 689.13 223.16H714.747C744.476 223.122 771.858 239.306 786.16 265.368C788.581 269.726 790.583 274.303 792.138 279.039C794.895 287.325 796.295 296.002 796.283 304.735V371.679V372.943C796.949 401.958 820.671 425.127 849.693 425.108H931.092C943.874 425.106 956.131 430.19 965.157 439.24C965.529 439.622 965.921 440.014 966.274 440.406C974.636 449.322 979.284 461.091 979.269 473.315Z" fill="#F3F4FE"/>
<path d="M899.154 662.798C896.511 674.05 890.779 684.341 882.602 692.511C881.514 693.589 880.387 694.638 879.221 695.637H103.962C97.7781 691.749 92.0514 687.176 86.8908 682.006C81.1349 676.245 76.115 669.793 71.9458 662.798L899.154 662.798Z" fill="#D2D6FA"/>
<path d="M879.26 695.637C867.965 705.375 853.542 710.721 838.629 710.7C833.238 710.693 827.896 711.717 822.89 713.718H185.155C180.149 711.719 174.807 710.695 169.417 710.7H156.206C137.727 710.719 119.621 705.496 103.992 695.637L879.26 695.637Z" fill="#C4CBF7"/>
<rect x="854.829" y="924.565" width="72.5788" height="17.2578" rx="8.6289" fill="#D2D6FA"/>
<rect x="41.5364" y="924.565" width="806.266" height="17.2578" rx="8.6289" fill="#D2D6FA"/>
<path d="M658.76 212.635H494.835C462.657 212.629 436.574 186.542 436.574 154.364V125.385H591.297C617.222 125.348 638.663 145.563 640.15 171.445V172.68C640.15 172.68 640.15 173.768 640.15 174.317C640.146 177.092 640.382 179.863 640.855 182.598C642.793 193.877 648.618 204.123 657.319 211.557C657.829 211.939 658.27 212.292 658.76 212.635Z" fill="#C4CBF7"/>
<rect x="395.571" y="242.152" width="208.897" height="294.764" rx="104.448" fill="#D2D6FA"/>
<rect x="412.133" y="265.515" width="175.783" height="248.028" rx="87.8913" fill="#F3F4FE"/>
<rect x="425.099" y="570.09" width="118.688" height="17.2872" rx="8.6436" fill="#D2D6FA"/>
<rect x="425.099" y="606.967" width="193.021" height="17.2872" rx="8.6436" fill="#D2D6FA"/>
<circle cx="307.704" cy="426.99" r="43.1592" fill="#63E4E4"/>
<path d="M444.875 460.8C444.499 462.44 444.008 464.051 443.405 465.622C436.902 482.794 418.722 492.53 400.824 488.426L305.764 466.621C285.971 462.08 273.607 442.354 278.148 422.56C282.689 402.767 302.415 390.403 322.208 394.944L417.268 416.739C437.054 421.289 449.411 441.011 444.875 460.8Z" fill="#DEF9FF"/>
<path d="M443.405 465.592C436.902 482.764 418.722 492.5 400.824 488.397L305.764 466.592C294.157 463.935 284.56 455.814 280.019 444.806C285.888 450.136 293.121 453.732 300.913 455.194L366.485 468.062L381.489 471.002C382.469 471.208 383.37 471.335 384.331 471.482C385.311 471.796 386.291 472.129 387.271 472.413C399.855 475.859 413.226 475.039 425.295 470.081C431.533 469.566 437.648 468.051 443.405 465.592Z" fill="#E9FFFE"/>
<path d="M518.995 386.19C512.381 376.052 515.238 362.472 525.376 355.858L544.82 343.173C554.958 336.559 568.539 339.416 575.153 349.554C581.767 359.692 578.91 373.272 568.772 379.886L549.328 392.571C539.189 399.185 525.609 396.328 518.995 386.19Z" fill="#F5B5A9"/>
<path d="M474.042 369.02C464.747 366.529 459.232 356.974 461.723 347.678L470.134 316.299C472.626 307.004 482.181 301.488 491.476 303.98C500.771 306.471 506.286 316.026 503.795 325.322L495.384 356.701C492.892 365.996 483.337 371.512 474.042 369.02Z" fill="#F5B5A9"/>
<path d="M492.974 363.287C483.719 349.101 487.717 330.099 501.903 320.844L522.225 307.586C536.412 298.331 555.414 302.328 564.669 316.514C573.924 330.701 569.926 349.703 555.74 358.958L535.418 372.216C521.232 381.471 502.229 377.474 492.974 363.287Z" fill="#F5B5A9"/>
<path d="M456.444 476.677C437.956 493.917 408.994 492.905 391.754 474.418C374.514 455.93 375.525 426.967 394.013 409.727L476.694 332.625C495.182 315.386 524.145 316.397 541.385 334.885C558.625 353.372 557.613 382.335 539.126 399.575L456.444 476.677Z" fill="#F5B5A9"/>
<path d="M518.995 386.19C512.381 376.052 515.238 362.472 525.376 355.858L544.82 343.173C554.958 336.559 568.539 339.416 575.153 349.554C581.767 359.692 578.91 373.272 568.772 379.886L549.328 392.571C539.189 399.185 525.609 396.328 518.995 386.19Z" fill="#F5B5A9"/>
<path d="M391.72 474.412C385.454 467.722 381.355 459.295 379.96 450.236C385.26 464.623 397.404 475.407 412.317 478.968C427.231 482.529 442.937 478.395 454.165 467.954L531.938 395.434L536.838 390.857C538.253 389.532 539.585 388.122 540.827 386.634C543.048 386.046 545.16 385.103 547.079 383.841L551.048 381.244L566.503 371.159C569.726 369.075 572.34 366.174 574.078 362.751C575.783 359.387 576.596 355.641 576.44 351.873C581.326 361.806 578.028 373.823 568.757 379.872L549.304 392.553C547.37 393.809 545.255 394.761 543.032 395.375C541.812 396.849 540.503 398.247 539.112 399.56L456.439 476.666C447.56 484.953 435.751 489.372 423.612 488.949C411.474 488.527 400.001 483.297 391.72 474.412Z" fill="#F8CDC5"/>
<path d="M256.9 328.957L305.092 323.764L311.149 379.975L262.957 385.168L256.9 328.957Z" fill="#F5B5A9"/>
<ellipse cx="329.347" cy="260.643" rx="14.8372" ry="29.7822" transform="rotate(-6.15 329.347 260.643)" fill="#030303"/>
<path d="M256.901 328.951L258.714 345.777C269.302 356.697 283.219 363.788 298.277 365.936C302.063 366.485 305.889 366.708 309.713 366.602L305.098 323.767L256.901 328.951Z" fill="#F29495"/>
<path d="M224.62 269.112L229.52 298.747C232.531 316.723 242.561 332.765 257.402 343.344C272.244 353.924 290.68 358.173 308.655 355.156C331.163 351.374 346.35 330.068 342.583 307.557L335.527 265.466L334.38 258.352L333.939 255.735L332.645 247.973C331.134 238.963 326.103 230.922 318.661 225.623C311.218 220.324 301.974 218.2 292.965 219.72L285.615 220.955L255.235 226.041C251.316 226.687 247.527 227.961 244.014 229.814C229.752 237.361 221.935 253.201 224.62 269.112Z" fill="#F5B5A9"/>
<path d="M234.008 269.602C243.573 288.222 277.128 289.957 308.9 273.581C318.08 268.913 326.51 262.898 333.91 255.735L332.616 247.973C329.468 229.222 311.716 216.573 292.965 219.72L285.615 220.955L255.235 226.041C251.316 226.687 247.527 227.961 244.014 229.814C232.587 243.426 228.207 258.312 234.008 269.602Z" fill="#F29495"/>
<circle cx="287.987" cy="288.526" r="4.753" fill="#1E1D1D"/>
<circle cx="321.571" cy="286.83" r="4.753" fill="#1E1D1D"/>
<path d="M317.789 305.235C317.915 308.978 316.551 312.619 313.996 315.358C313.673 315.691 313.349 316.005 313.016 316.338C310.563 318.513 307.424 319.758 304.147 319.856H303.579C296.235 320.105 289.927 314.68 289.075 307.381C289.025 306.994 288.996 306.605 288.986 306.215C288.96 305.489 289.225 304.782 289.721 304.252C290.218 303.722 290.906 303.413 291.632 303.392L314.956 302.599C316.465 302.549 317.73 303.727 317.789 305.235Z" fill="#962F4A"/>
<path d="M303.784 317.72C303.813 318.448 303.767 319.177 303.647 319.896H303.569C296.227 320.144 289.922 314.717 289.075 307.42C292.43 306.328 296.105 306.877 298.995 308.902C301.885 310.927 303.655 314.193 303.775 317.72H303.784Z" fill="#E1617F"/>
<path d="M314.437 302.608C314.437 305.382 310.223 307.744 304.98 307.92C299.737 308.096 295.386 306.029 295.18 303.255L314.437 302.608Z" fill="white"/>
<path d="M227.593 317.902L225.099 318.171L218.948 261.093L247.76 257.989L251.075 288.749C251.829 295.73 249.779 302.724 245.375 308.192C240.971 313.659 234.574 317.153 227.593 317.902Z" fill="#030303"/>
<circle cx="235.116" cy="303.853" r="17.4832" fill="#F5B5A9"/>
<path d="M229.657 302.442C229.583 305.478 231.337 308.262 234.106 309.508C234.762 309.764 235.501 309.684 236.087 309.293C236.672 308.903 237.031 308.251 237.046 307.548L237.291 297.748C237.304 297 236.936 296.297 236.313 295.882C235.69 295.468 234.899 295.399 234.214 295.699C231.513 296.869 229.735 299.499 229.657 302.442Z" fill="#F29495"/>
<circle cx="231.607" cy="244.475" r="31.5462" fill="#030303"/>
<path d="M200.247 247.856C201.228 257.014 206.17 265.283 213.771 270.484C201.772 259.176 200.509 240.533 210.874 227.71C221.238 214.886 239.731 212.211 253.305 221.572C243.705 212.481 229.456 210.34 217.609 216.209C205.762 222.077 198.831 234.711 200.247 247.856Z" fill="#1E1D1D"/>
<circle cx="262.507" cy="222.944" r="42.3164" fill="#030303"/>
<circle cx="315.662" cy="227.746" r="42.3164" fill="#030303"/>
<circle cx="262.507" cy="222.944" r="42.3164" fill="#030303"/>
<circle cx="315.662" cy="227.746" r="42.3164" fill="#030303"/>
<path d="M220.318 219.622C224.513 206.823 234.557 196.79 247.361 192.608C260.164 188.427 274.194 190.598 285.135 198.454C286.882 199.682 288.521 201.055 290.035 202.56C292.267 201.009 294.655 199.696 297.16 198.64C286.919 184.011 268.597 177.386 251.368 182.081C234.139 186.776 221.711 201.781 220.308 219.583L220.318 219.622Z" fill="#1E1D1D"/>
<path d="M285.135 198.454C286.882 199.682 288.521 201.055 290.035 202.56C292.267 201.009 294.655 199.696 297.16 198.64C300.969 197.018 304.998 195.971 309.116 195.534C320.273 194.328 331.452 197.604 340.193 204.641C348.934 211.679 354.521 221.901 355.724 233.058C356.002 235.662 356.041 238.286 355.842 240.898C361.482 223.73 355.596 204.876 341.19 193.966C326.784 183.057 307.04 182.501 292.044 192.584C289.529 194.276 287.212 196.245 285.135 198.454H285.135Z" fill="#1E1D1D"/>
<circle cx="256.578" cy="229.177" r="18.2378" fill="#1E1D1D"/>
<path d="M272.618 381.579L298.799 378.758C339.933 374.326 376.872 404.079 381.304 445.213L397.837 598.645L262.313 613.248L241.511 420.189C240.514 410.943 243.232 401.681 249.066 394.44C254.9 387.199 263.372 382.573 272.618 381.579Z" fill="#333333"/>
<path d="M236.093 386.789C235.077 377.356 241.9 368.885 251.333 367.868L323.592 360.082C333.025 359.066 341.496 365.889 342.513 375.322C343.529 384.756 336.706 393.227 327.273 394.243L255.014 402.029C245.581 403.046 237.11 396.223 236.093 386.789Z" fill="#333333"/>
<path d="M483.712 874.203L472.629 631.32C471.408 610.108 487.609 591.92 508.82 590.689L509.8 590.63C519.99 590.042 529.996 593.525 537.618 600.314C545.24 607.103 549.852 616.642 550.441 626.832L561.524 869.715C561.697 872.942 559.233 875.704 556.007 875.898L489.847 879.721C486.639 879.866 483.907 877.409 483.712 874.203Z" fill="#030303"/>
<path d="M551.935 870.136L552.817 898.062L495.878 899.861L494.996 871.936L551.935 870.136Z" fill="#030303"/>
<path d="M508.868 673.311L405.257 678.342C375.641 679.764 350.474 656.92 349.031 627.305L348.395 614.218C348.196 610.111 349.636 606.093 352.399 603.048C355.162 600.002 359.022 598.18 363.129 597.98L504.876 591.097C527.581 589.995 546.881 607.507 547.983 630.213C549.086 652.918 531.573 672.218 508.868 673.32L508.868 673.311Z" fill="#030303"/>
<path d="M520.257 904.916L576.293 907.984C577.14 892.51 565.283 879.279 549.808 878.432C534.334 877.585 521.104 889.442 520.257 904.916Z" fill="#030303"/>
<path d="M581.967 914.824L582.065 906.22C582.106 902.496 579.243 899.384 575.529 899.115L501.901 893.695C499.476 893.52 497.085 894.353 495.295 895.999C493.504 897.644 492.473 899.956 492.444 902.388L492.268 918.313L581.967 914.824Z" fill="#030303"/>
<path d="M492.327 913.56L492.268 918.725C492.23 922.012 494.861 924.709 498.148 924.752L577.812 925.624C580.395 925.655 582.884 924.659 584.731 922.853C586.579 921.048 587.633 918.583 587.661 916C587.694 910.639 583.388 906.259 578.028 906.2L555.723 905.955C553.507 905.929 551.371 906.785 549.786 908.335C548.202 909.884 547.298 912 547.275 914.217L492.327 913.56Z" fill="#030303"/>
<path d="M262.154 631.575C262.8 646.114 269.246 659.788 280.049 669.54C289.21 677.856 301.086 682.548 313.457 682.741C313.643 682.75 313.83 682.75 314.016 682.741C314.898 682.741 315.77 682.741 316.662 682.692L416.886 677.792C427.505 677.256 437.446 672.415 444.414 664.385C449.263 658.848 452.55 652.12 453.94 644.893C454.538 641.775 454.784 638.599 454.675 635.426C453.901 612.445 434.35 594.56 412.133 595.638L260.762 602.998L262.154 631.575Z" fill="#333333"/>
<path d="M637.205 837.012L661.427 863.765L618.836 902.327L594.614 875.574L637.205 837.012Z" fill="#FFB2BF"/>
<path d="M641.451 839.738L649.463 848.506L606.974 887.331L598.962 878.563L641.451 839.738Z" fill="#F9A0B4"/>
<path d="M643.776 894.038L688.16 859.66C682.024 851.733 672.125 847.682 662.193 849.033C652.26 850.383 643.802 856.93 640.006 866.207C636.209 875.484 637.65 886.082 643.786 894.009L643.776 894.038Z" fill="#333333"/>
<path d="M696.921 861.14L691.365 854.584C688.962 851.736 684.758 851.251 681.77 853.476L622.549 897.576C620.605 899.029 619.346 901.219 619.068 903.629C618.79 906.04 619.517 908.459 621.079 910.316L631.369 922.478L696.921 861.14Z" fill="#FDBF48"/>
<path d="M628.302 918.852L631.624 922.772C632.646 923.986 634.11 924.743 635.691 924.875C637.273 925.008 638.842 924.505 640.052 923.478L700.812 872.028C704.914 868.554 705.427 862.414 701.958 858.308C698.469 854.236 692.355 853.725 688.238 857.161L671.216 871.577C667.7 874.555 667.262 879.818 670.236 883.337L628.302 918.852Z" fill="#333333"/>
<path d="M387.574 660.544L388.907 661.994L403.96 678.448L480.782 762.522L587.7 880.818C589.223 882.485 591.345 883.479 593.601 883.58C595.856 883.681 598.059 882.882 599.725 881.357L644.736 840.197C648.203 837.024 648.444 831.643 645.275 828.173L581.938 757.613L474.059 639.581L445.12 607.937C430.593 592.038 405.928 590.926 390.029 605.453C374.13 619.98 373.018 644.645 387.545 660.544H387.574Z" fill="#333333"/>
<circle cx="290.486" cy="440.857" r="43.1592" fill="#030303"/>
<path d="M337.83 573.951C328.697 577.37 318.579 577.02 309.704 572.976C300.83 568.932 293.927 561.527 290.515 552.391L256.343 461.006C251.48 448.639 253.67 434.612 262.07 424.316C270.47 414.02 283.773 409.059 296.863 411.34C309.954 413.621 320.795 422.79 325.217 435.32L359.39 526.685C366.467 545.69 356.821 566.837 337.83 573.951Z" fill="#302E2E"/>
<path d="M332.998 575.391C315.083 579.413 296.947 569.599 290.515 552.401L256.343 461.016C252.154 449.851 253.645 437.347 260.341 427.48C259.129 435.316 260.109 443.334 263.173 450.647L288.545 512.466L294.347 526.607C294.71 527.518 295.102 528.371 295.513 529.243C295.925 530.115 296.052 531.203 296.376 532.242C300.425 544.654 308.476 555.373 319.268 562.72C323.136 567.653 327.772 571.931 332.998 575.391Z" fill="#333333"/>
<circle cx="336.899" cy="544.894" r="52.5378" fill="#030303"/>
<path d="M445.734 537.476C444.513 525.433 453.285 514.681 465.328 513.459L488.426 511.117C500.469 509.896 511.222 518.669 512.443 530.712C513.664 542.755 504.892 553.508 492.848 554.729L469.751 557.071C457.708 558.292 446.955 549.519 445.734 537.476Z" fill="#F5B5A9"/>
<path d="M411.028 500.2C403.923 493.771 403.375 482.799 409.804 475.693L431.509 451.705C437.938 444.6 448.911 444.052 456.016 450.481C463.122 456.91 463.67 467.883 457.241 474.988L435.536 498.976C429.106 506.082 418.134 506.63 411.028 500.2Z" fill="#F5B5A9"/>
<path d="M433.137 505.2C431.428 488.348 443.704 473.302 460.555 471.593L484.696 469.145C501.548 467.436 516.594 479.712 518.303 496.564C520.012 513.415 507.736 528.462 490.884 530.17L466.743 532.618C449.892 534.327 434.845 522.051 433.137 505.2Z" fill="#F5B5A9"/>
<path d="M347.286 590.157C323.018 596.982 297.813 582.842 290.987 558.575C284.162 534.307 298.302 509.102 322.569 502.276L431.1 471.752C455.367 464.927 480.573 479.067 487.398 503.334C494.223 527.601 480.084 552.807 455.816 559.632L347.286 590.157Z" fill="#F5B5A9"/>
<path d="M445.734 537.476C444.513 525.433 453.285 514.681 465.328 513.459L488.426 511.117C500.469 509.896 511.222 518.669 512.443 530.712C513.664 542.755 504.892 553.508 492.848 554.729L469.751 557.071C457.708 558.292 446.955 549.519 445.734 537.476Z" fill="#F5B5A9"/>
<path d="M292.132 557.448C289.643 548.625 289.872 539.257 292.789 530.566C290.887 545.789 296.728 560.954 308.35 570.969C319.972 580.983 335.834 584.519 350.609 580.389L452.96 551.675L459.428 549.862C461.296 549.323 463.129 548.668 464.916 547.902C467.167 548.402 469.483 548.535 471.776 548.294L476.5 547.804L494.865 545.942C498.683 545.572 502.336 544.196 505.449 541.954C508.507 539.748 510.95 536.796 512.544 533.379C512.318 544.441 503.874 553.596 492.866 554.713L469.757 557.056C467.465 557.283 465.151 557.157 462.897 556.683C461.125 557.425 459.308 558.056 457.458 558.575L348.58 589.18C336.887 592.461 324.368 590.961 313.781 585.009C303.194 579.058 295.406 569.143 292.132 557.448Z" fill="#F8CDC5"/>
<path d="M182.735 804.849H492.807C511.279 804.849 528.994 812.187 542.056 825.248C555.117 838.31 562.455 856.025 562.455 874.497V924.889H113.086V874.497C113.086 836.031 144.269 804.849 182.735 804.849V804.849Z" fill="#7986BF"/>
<path d="M162.743 690.345H512.799V838.09H162.743L162.743 690.345Z" fill="#7986BF"/>
<path d="M88.9463 283.186C86.6683 268.963 96.351 255.587 110.573 253.309L155.614 246.095C169.836 243.817 183.212 253.499 185.49 267.722L245.068 639.678C247.346 653.901 237.663 667.277 223.441 669.555L178.401 676.769C164.178 679.047 150.802 669.364 148.524 655.142L88.9463 283.186Z" fill="#97A6DB"/>
<path d="M102.407 254.62L149.551 247.069C189.531 240.676 227.126 267.898 233.529 307.876C236.613 327.08 231.941 346.723 220.54 362.481C209.139 378.239 191.945 388.822 172.74 391.901L108.013 402.269L87.6308 275.021C86.0755 265.31 92.6865 256.177 102.397 254.622L102.407 254.62Z" fill="#97A6DB"/>
<path d="M142.986 690.345H521.266C540.556 690.345 556.193 705.983 556.193 725.273V729.32C556.193 748.61 540.556 764.247 521.266 764.247H151.512C146.803 764.247 142.986 760.43 142.986 755.721L142.986 690.345Z" fill="#6877AF"/>
<path d="M164.232 601.92H541.532C550.809 601.92 558.33 609.44 558.33 618.717V624.46C558.33 670.563 520.956 707.936 474.853 707.936H166.741C150.033 707.936 136.489 694.392 136.489 677.684V629.664C136.489 622.306 139.412 615.249 144.615 610.046C149.818 604.843 156.874 601.92 164.232 601.92V601.92Z" fill="#7986BF"/>
<path d="M633.995 166.477C662.484 162.645 683.76 145.897 681.506 129.168C679.252 112.439 654.321 101.914 625.822 105.746C609.936 107.892 596.991 119.241 588.651 128.874C585.477 132.541 584.029 137.393 584.676 142.2C585.323 147.006 588.001 151.304 592.032 154.001C602.626 161.077 618.1 168.613 633.995 166.477Z" fill="#E1160C"/>
<path d="M688.669 274.015L738.146 236.255L778.272 288.833L728.795 326.593C715.125 336.998 695.61 334.365 685.187 320.708L682.839 317.63C672.416 303.973 675.025 284.455 688.669 274.015L688.669 274.015Z" fill="#EFD6D8"/>
<rect x="436.329" y="364.77" width="170.069" height="13.4358" rx="6.7179" fill="#D2D6FA"/>
<path d="M716.826 212.747L721.929 208.853L855.351 383.679L792.139 431.92L703.064 315.204C691.3 299.793 686.141 280.34 688.722 261.125C691.302 241.91 701.412 224.507 716.826 212.747Z" fill="#EFD6D8"/>
<path d="M715.418 213.831L721.939 208.854L855.361 383.68L848.841 388.656L715.418 213.831Z" fill="#F7DADE"/>
<path d="M767.707 399.897L830.919 351.655L860.141 389.945L796.929 438.187L767.707 399.897Z" fill="#614D63"/>
<path d="M633.344 88.8578L639.937 85.247C655.682 76.6228 675.438 82.3961 684.062 98.1419L703.279 133.228C714.555 153.861 706.996 179.728 686.384 191.042L686.135 191.178C665.485 202.488 639.577 194.917 628.267 174.268L615.321 150.631C603.257 128.594 611.323 100.95 633.344 88.8578V88.8578Z" fill="#E1160C"/>
<path d="M694.167 172.621L698.029 179.971L706.339 195.837C708.732 200.399 708.51 205.892 705.755 210.245C703.001 214.599 698.133 217.152 692.986 216.943C687.838 216.735 683.193 213.796 680.8 209.234L679.928 207.578L668.629 186.018C666.092 181.442 666.232 175.851 668.995 171.408C671.757 166.965 676.709 164.365 681.935 164.615C687.161 164.865 691.842 167.925 694.167 172.611V172.621Z" fill="#FFB2BF"/>
<path d="M694.167 172.621L698.029 179.971C695.421 191.012 689.014 200.784 679.928 207.578L668.629 186.018C666.092 181.442 666.232 175.851 668.995 171.408C671.757 166.965 676.709 164.365 681.935 164.615C687.161 164.865 691.842 167.925 694.167 172.611V172.621Z" fill="#F9A0B4"/>
<path d="M684.828 104.08L698.548 132.5C710.134 156.608 700.015 185.546 675.93 197.18C657.311 206.162 634.936 198.353 625.95 179.736L614.464 155.922C614.395 155.775 614.327 155.638 614.258 155.481C613.945 154.824 613.66 154.168 613.386 153.521C603.163 129.127 613.606 100.984 637.269 89.1643C637.465 89.0565 637.68 88.9585 637.876 88.8605L639.297 88.1745C647.442 84.2328 656.821 83.6945 665.363 86.6787C673.906 89.6628 680.909 95.9239 684.828 104.08Z" fill="#FFB2BF"/>
<path d="M671.5 198.993C655.919 200.471 641.063 192.097 634.26 178.001L622.696 154.168C622.627 154.021 622.569 153.884 622.49 153.737C622.186 153.08 621.892 152.423 621.628 151.777C611.403 127.385 621.842 99.243 645.501 87.4201L646.118 87.1163L647.539 86.4401C648.748 85.8469 649.995 85.3361 651.273 84.9113C649.287 85.0551 647.318 85.3832 645.393 85.8913C643.305 86.4516 641.274 87.2062 639.327 88.1453L637.915 88.8313L637.288 89.1253C613.632 100.956 603.195 129.097 613.415 153.492C613.69 154.168 613.984 154.824 614.288 155.452L614.493 155.883L625.989 179.707C634.152 196.664 653.638 204.921 671.5 198.993Z" fill="#F9A0B4"/>
<path d="M688.581 110.43L688.395 110.489C688.262 110.526 688.131 110.572 688.003 110.626L687.895 110.401C688.16 110.401 688.356 110.411 688.581 110.43Z" fill="#F9E0E5"/>
<circle cx="645.109" cy="158.97" r="3.6162" fill="#2C0F33"/>
<path d="M704.896 367.736C697.668 381.065 681.003 386.011 667.674 378.783C654.345 371.555 649.399 354.89 656.627 341.561L700.256 261.107C707.484 247.778 724.149 242.832 737.478 250.06C750.807 257.288 755.753 273.953 748.525 287.282L704.896 367.736Z" fill="#FFB2BF"/>
<path d="M592.534 393.712C577.522 395.835 563.633 385.387 561.51 370.376C559.387 355.365 569.835 341.475 584.846 339.352L675.453 326.539C690.465 324.416 704.354 334.864 706.477 349.876C708.6 364.887 698.152 378.777 683.141 380.899L592.534 393.712Z" fill="#FFB2BF"/>
<ellipse cx="580.447" cy="374.929" rx="36.8382" ry="29.0472" transform="rotate(-57.9 580.447 374.929)" fill="#FFB2BF"/>
<path d="M560.221 368.994C561.093 367.604 562.035 366.26 563.043 364.966C570.031 356.058 579.537 350.658 588.729 349.746C589.484 349.57 590.258 349.433 591.052 349.325L604.576 347.443L657.378 340.113L667.727 338.672L673.676 327.716L704.595 270.68C711.055 258.77 725.242 253.358 737.993 257.94C740.745 258.964 743.729 259.198 746.607 258.616L746.882 258.557C741.445 250.727 732.335 246.279 722.817 246.809C713.299 247.338 704.738 252.769 700.204 261.154L663.327 329.166L586.652 339.799C585.858 339.917 585.084 340.054 584.319 340.24C573.814 341.289 562.887 348.208 555.821 359.478C547.06 373.453 546.873 389.858 554.361 400.05C551.989 390.612 553.831 379.166 560.221 368.994Z" fill="#F9A0B4"/>
<path d="M619.587 399.741C617.335 400.053 615.257 398.481 614.944 396.23L606.057 332.183C605.745 329.931 607.317 327.853 609.568 327.54C611.82 327.228 613.898 328.8 614.211 331.052L623.098 395.098C623.41 397.35 621.838 399.429 619.587 399.741Z" fill="#614D63"/>
<path d="M629.044 393.581C626.792 393.893 624.714 392.321 624.401 390.069L616.74 334.856C616.427 332.604 617.999 330.526 620.251 330.213C622.502 329.901 624.581 331.473 624.893 333.725L632.555 388.938C632.867 391.19 631.295 393.268 629.044 393.581Z" fill="#614D63"/>
<ellipse cx="586.29" cy="378.55" rx="15.0332" ry="10.8388" transform="rotate(-59.53 586.29 378.55)" fill="#FDC3CD"/>
<path d="M631.869 139.762C660.357 135.93 681.633 119.182 679.369 102.453C677.106 85.7246 652.194 75.1994 623.696 79.041C607.8 81.1774 594.864 92.5356 586.524 102.12C583.35 105.787 581.903 110.64 582.55 115.446C583.196 120.252 585.875 124.55 589.905 127.247C600.489 134.372 615.973 141.898 631.869 139.762Z" fill="#E1160C"/>
<path d="M631.869 139.762C660.357 135.93 681.633 119.182 679.369 102.453C677.106 85.7246 652.194 75.1994 623.696 79.041C607.8 81.1774 594.864 92.5356 586.524 102.12C583.35 105.787 581.903 110.64 582.55 115.446C583.196 120.252 585.875 124.55 589.905 127.247C600.489 134.372 615.973 141.898 631.869 139.762Z" fill="#E1160C"/>
<path d="M589.905 127.296C595.749 131.271 602.067 134.501 608.711 136.91C604.655 134.977 600.747 132.747 597.02 130.236C592.981 127.534 590.297 123.226 589.652 118.409C589.007 113.592 590.463 108.73 593.649 105.06C601.989 95.4266 614.925 84.0782 630.82 81.932C643.227 80.266 654.967 81.3146 664.434 84.4016C654.085 79.1292 639.434 76.885 623.696 78.992C607.8 81.1774 594.854 92.5356 586.524 102.12C583.339 105.791 581.885 110.654 582.532 115.471C583.179 120.288 585.864 124.595 589.905 127.296Z" fill="#FC4942"/>
<circle cx="665.365" cy="98.1608" r="27.391" fill="#E1160C"/>
<ellipse cx="690.454" cy="113.633" rx="20.3742" ry="28.1162" transform="rotate(-33.67 690.454 113.633)" fill="#E1160C"/>
<circle cx="665.365" cy="98.1608" r="27.391" fill="#E1160C"/>
<ellipse cx="690.454" cy="113.633" rx="20.3742" ry="28.1162" transform="rotate(-33.67 690.454 113.633)" fill="#E1160C"/>
<path d="M637.974 97.8962C642.554 87.6994 652.861 81.2996 664.031 81.7174C675.201 82.1352 685.002 89.287 688.807 99.7974C690.097 100.259 691.349 100.823 692.55 101.483C697.587 104.292 701.868 108.28 705.026 113.106C708.714 118.49 710.816 124.803 711.092 131.324C715.179 123.7 714.032 112.224 707.378 102.277C703.514 96.2392 697.841 91.5776 691.169 88.9586C686.618 76.5629 673.885 69.1658 660.863 71.3537C647.841 73.5417 638.223 84.694 637.974 97.8962H637.974Z" fill="#D20900"/>
<circle cx="692.913" cy="124.993" r="15.19" fill="#FFB2BF"/>
<path d="M700.792 137.978C708.62 161.158 697.961 186.539 675.93 197.18C671.149 199.49 665.93 200.753 660.622 200.884C663.979 200.298 667.238 199.246 670.304 197.758C691.842 187.36 702.587 162.816 695.618 139.938C695.481 139.478 695.343 139.017 695.177 138.566C696.856 137.546 698.326 136.215 699.508 134.646C702.778 130.217 703.399 124.368 701.133 119.351C698.866 114.334 694.066 110.934 688.581 110.46C695.905 108.278 703.709 111.876 706.806 118.862C709.902 125.848 707.327 134.047 700.792 138.008V137.978Z" fill="#FDC3CD"/>
<path d="M697.049 121.847C695.415 119.797 692.709 118.931 690.189 119.652C689.603 119.838 689.148 120.302 688.973 120.891C688.798 121.48 688.927 122.117 689.316 122.592L694.589 129.188C694.994 129.688 695.627 129.947 696.266 129.873C696.906 129.8 697.463 129.404 697.744 128.825C698.898 126.563 698.626 123.837 697.049 121.847Z" fill="#F9A0B4"/>
<path d="M772.44 435.408H884.846L841.275 650.557C841.012 651.895 839.836 652.857 838.472 652.851H775.38C774.622 652.853 773.894 652.554 773.357 652.019C772.82 651.484 772.518 650.757 772.518 649.999L772.44 435.408Z" fill="#614D63"/>
<circle cx="828.663" cy="435.408" r="56.1834" fill="#614D63"/>
<path d="M884.856 435.418C884.865 442.942 883.359 450.392 880.426 457.321L841.285 650.567C840.987 651.888 839.826 652.835 838.472 652.86H828.672L864.736 478.499L870.411 451.059C872.576 446.083 873.999 440.817 874.634 435.428C874.907 433.204 875.041 430.965 875.036 428.725C875.057 412.207 867.784 396.523 855.162 385.869C873.447 395.638 884.863 414.687 884.856 435.418Z" fill="#68566B"/>
<path d="M677.713 208.938L704.356 188.605C706.964 186.615 710.69 187.115 712.68 189.723L725.439 206.441C727.429 209.049 726.928 212.775 724.321 214.765L700.7 232.792C696.445 236.039 690.363 235.222 687.116 230.967L676.628 217.225C674.656 214.632 675.14 210.936 677.713 208.938V208.938Z" fill="#614D63"/>
<path d="M699.603 186.826L701.454 185.397C704.062 183.383 707.809 183.865 709.823 186.473L722.598 203.018C724.612 205.626 724.13 209.373 721.522 211.387C718.884 213.424 715.094 212.937 713.057 210.299L698.937 192.012C697.689 190.396 697.987 188.074 699.603 186.826Z" fill="#68566B"/>
<path d="M603.958 51.062L647.608 39.302C654.761 37.3721 662.259 40.9174 665.306 47.6712L677.066 73.7294C678.42 76.7365 678.425 80.1789 677.079 83.1894C675.733 86.2 673.164 88.4919 670.02 89.4878L609.858 108.529C606.472 109.6 602.782 109.054 599.851 107.049C596.92 105.044 595.074 101.803 594.844 98.2588L592.816 66.6048C592.359 59.4326 597.019 52.9316 603.958 51.062Z" fill="#614D63"/>
<path d="M670.001 89.4976L660.475 92.516C660.311 91.5281 660.017 90.566 659.603 89.6544L647.843 63.606C644.803 56.8754 637.341 53.331 630.203 55.227L592.786 65.2916C592.943 58.5958 597.491 52.803 603.958 51.062L647.617 39.302C654.756 37.393 662.227 40.9413 665.257 47.681L677.017 73.7392C678.376 76.742 678.386 80.1822 677.045 83.193C675.705 86.2037 673.141 88.498 670.001 89.4976Z" fill="#68566B"/>
<path d="M692.541 214.82C692.541 214.82 662.788 219.23 656.8 264.8C650.812 310.37 619.893 315.642 619.893 315.642C619.893 315.642 689.904 335.605 684.24 276.854C680.32 236.204 692.541 214.82 692.541 214.82Z" fill="#614D63"/>
<path d="M777.085 652.851H828.663V914.677H777.085V652.851Z" fill="#FFB2BF"/>
<path d="M777.085 652.851H828.663V677.204H777.085V652.851Z" fill="#F9A0B4"/>
<path d="M732.868 912.129L808.132 911.806C808.042 891.022 791.121 874.246 770.338 874.336C749.554 874.425 732.778 891.346 732.868 912.129Z" fill="#EFD6D8"/>
<path d="M725.821 913.148C725.854 920.273 731.653 926.023 738.777 925.996L771.342 925.849L835.346 925.526C839.847 925.205 843.38 921.538 843.534 917.029C843.688 912.519 840.413 908.62 835.944 907.994L773.361 902.692L739.659 900.232C736.074 899.964 732.54 901.207 729.912 903.66C727.283 906.113 725.8 909.553 725.821 913.148Z" fill="#614D63"/>
<circle cx="766.717" cy="875.908" r="10.0254" fill="#614D63"/>
<path d="M489.485 284.625H525.255C526.261 284.625 527.077 285.441 527.077 286.448V298.59C527.077 309.48 518.25 318.308 507.36 318.308C496.47 318.308 487.642 309.48 487.642 298.59V286.458C487.64 285.969 487.833 285.5 488.18 285.156C488.526 284.811 488.996 284.62 489.485 284.625Z" fill="#C4C8F2"/>
<path d="M523.442 287.732V299.1C523.444 303.363 521.753 307.452 518.741 310.468C515.729 313.483 511.642 315.179 507.379 315.182C503.113 315.184 499.021 313.491 496.005 310.474C492.989 307.458 491.295 303.366 491.298 299.1V296.836C497.129 308.371 509.663 306.068 511.878 296.836C514.014 287.81 522.991 287.703 523.451 287.703L523.442 287.732Z" fill="#E1160C"/>
<path d="M506.86 315.201C508.294 315.201 509.457 316.364 509.457 317.798V359.86H504.263V317.808C504.26 317.118 504.533 316.455 505.02 315.966C505.507 315.476 506.169 315.201 506.86 315.201Z" fill="#C4C8F2"/>
<rect x="490.896" y="359.87" width="31.9088" height="4.4296" rx="2.2148" fill="#C4C8F2"/>
<path d="M767.702 399.893L830.914 351.651L840.498 364.209L777.286 412.451L767.702 399.893Z" fill="#4C3A4F"/>
<path d="M824.557 356.514L830.922 351.657L840.506 364.215L834.141 369.073L824.557 356.514Z" fill="#564559"/>
<path d="M645.559 180.99C647.374 183.32 650.038 184.835 652.968 185.204C653.321 185.204 653.684 185.273 654.036 185.283C656.62 185.364 659.151 184.539 661.19 182.95L661.543 182.666C663.412 181.227 664.766 179.223 665.404 176.953C666.304 173.848 665.803 170.505 664.032 167.8C663.867 167.538 663.687 167.286 663.493 167.045C663.146 166.59 662.631 166.293 662.063 166.222C661.493 166.153 660.919 166.312 660.465 166.663L645.942 177.962C645.004 178.695 644.833 180.047 645.559 180.99Z" fill="#962F4A"/>
<path d="M660.318 181.5C660.666 181.957 661.061 182.377 661.494 182.754H661.543C666.175 179.19 667.262 172.651 664.032 167.78C663.253 168.082 662.523 168.498 661.867 169.015C659.988 170.453 658.766 172.585 658.475 174.933C658.184 177.281 658.848 179.647 660.318 181.5Z" fill="#E1617F"/>
<path d="M646.265 177.707C647.676 179.383 651.41 178.687 654.673 176.149C657.937 173.611 659.524 170.161 658.26 168.388L646.265 177.707Z" fill="white"/>
</svg>
