<svg width="268" height="268" viewBox="0 0 268 268" fill="none" xmlns="http://www.w3.org/2000/svg">
<path d="M256.876 218.179C261.607 222.915 263.185 229.954 260.929 236.256C260.707 236.876 260.449 237.483 260.156 238.074C257.95 242.527 253.939 245.819 249.141 247.114C248.451 247.302 247.749 247.445 247.04 247.542C246.252 247.651 245.457 247.705 244.661 247.705H28.1088C24.0792 247.709 20.1758 246.3 17.0779 243.723C16.6629 243.382 16.2655 243.02 15.8855 242.638C15.6728 242.426 15.4627 242.208 15.2604 241.982C14.9978 241.696 14.7535 241.401 14.5171 241.097C13.7763 240.159 13.1363 239.146 12.6078 238.074C12.5368 237.932 12.4686 237.79 12.4029 237.646C12.1928 237.19 12.0037 236.727 11.8356 236.256C9.81341 230.655 10.8199 224.408 14.4988 219.726C14.7351 219.421 14.9846 219.127 15.242 218.841C18.518 215.19 23.1933 213.107 28.0983 213.112H50.6485C50.9322 213.112 51.2132 213.102 51.4916 213.081C52.2062 213.03 52.9142 212.91 53.6059 212.724C54.2095 212.562 54.7982 212.35 55.3656 212.088C56.5981 211.523 57.7204 210.743 58.6801 209.785C60.8167 207.661 62.0182 204.773 62.0182 201.761C62.019 201.331 61.9944 200.901 61.9447 200.474C61.4152 195.845 58.1145 192.007 53.6164 190.791C52.9246 190.605 52.2166 190.485 51.5021 190.433C51.2237 190.412 50.9427 190.402 50.659 190.402H47.1187C45.147 190.404 43.1815 190.183 41.2592 189.745H41.2408L41.1068 189.714C40.9597 189.682 40.8153 189.646 40.6708 189.609L40.4555 189.554C40.2664 189.504 40.0773 189.454 39.8908 189.399C39.7043 189.343 39.5756 189.307 39.4207 189.257C38.2416 188.898 37.09 188.455 35.9748 187.93C35.728 187.815 35.4811 187.697 35.2394 187.571C34.8402 187.368 34.4515 187.158 34.0628 186.935C33.3362 186.52 32.6358 186.07 31.9617 185.585C31.3944 185.183 30.8455 184.758 30.3123 184.314C29.703 183.808 29.1182 183.274 28.5579 182.712C23.9682 178.144 21.2357 172.036 20.8888 165.569C20.8783 165.375 20.8704 165.181 20.8652 164.986C20.8652 164.7 20.8494 164.411 20.8494 164.125C20.8494 163.999 20.8494 163.862 20.8494 163.749C20.8636 162.695 20.9408 161.643 21.0805 160.598C22.0537 153.375 25.9894 146.883 31.9433 142.68C32.5877 142.221 33.2521 141.793 33.9368 141.396C33.9761 141.372 34.0155 141.349 34.0576 141.328C35.2353 140.649 36.4647 140.064 37.7345 139.578C38.2861 139.366 38.8455 139.174 39.4128 138.998C39.9801 138.822 40.6183 138.654 41.2329 138.515C43.161 138.074 45.1328 137.851 47.1108 137.853H66.4568C68.8581 137.851 71.1998 137.105 73.1594 135.718C73.6889 135.34 74.1862 134.919 74.646 134.46C76.6548 132.454 77.8552 129.779 78.0183 126.945C78.0314 126.722 78.0393 126.496 78.0393 126.268C78.0382 122.752 76.4412 119.427 73.6978 117.228C73.5219 117.086 73.3433 116.965 73.1594 116.823C72.4998 116.351 71.7909 115.952 71.0452 115.634C70.8639 115.552 70.6801 115.479 70.4936 115.41C69.2024 114.928 67.835 114.683 66.4568 114.685H31.1186C27.8538 114.694 24.6137 114.119 21.5506 112.989C20.4708 112.589 19.4181 112.12 18.399 111.584C17.9472 111.347 17.5034 111.1 17.0674 110.84C16.4458 110.471 15.84 110.077 15.2499 109.658C14.9873 109.48 14.7509 109.299 14.5066 109.112C13.7756 108.555 13.0743 107.96 12.4055 107.329C12.1691 107.111 11.938 106.888 11.7095 106.659C7.97641 102.936 5.39658 98.215 4.27944 93.0623C4.24792 92.924 4.21903 92.7848 4.19277 92.6447C4.09822 92.1824 4.0168 91.7176 3.94851 91.2448C3.75411 89.9142 3.65668 88.5712 3.65698 87.2264C3.65698 87.1214 3.65698 87.0163 3.65698 86.9112C3.71851 80.6535 5.92493 74.6062 9.90782 69.7792C10.1547 69.4798 10.4095 69.183 10.6695 68.8941C11.0004 68.5212 11.3445 68.1587 11.6964 67.8068C11.9249 67.5783 12.156 67.3551 12.3924 67.1371L12.4607 67.074C12.6577 66.8902 12.8546 66.7116 13.0569 66.5356C13.5261 66.1242 14.0094 65.7302 14.5066 65.3538C14.7509 65.1673 14.9978 64.9861 15.2499 64.8075C15.502 64.6289 15.7069 64.4897 15.938 64.3347C16.3084 64.0878 16.6839 63.8488 17.0674 63.623L17.2539 63.5126C17.6294 63.292 18.0129 63.0793 18.399 62.8797C19.4176 62.3435 20.4704 61.875 21.5506 61.4772C24.6118 60.338 27.8524 59.7572 31.1186 59.7621C31.3959 59.7619 31.6729 59.747 31.9486 59.7175C32.6716 59.6391 33.3794 59.456 34.0497 59.1738C35.8771 58.4179 37.3415 56.9846 38.1364 55.1738C38.4475 54.4636 38.6477 53.7098 38.7299 52.9388C38.7572 52.6972 38.7713 52.4543 38.772 52.2112C38.772 52.1771 38.772 52.143 38.772 52.1088V46.6433C38.7706 45.3779 38.9529 44.119 39.313 42.9059C39.3471 42.793 39.3813 42.68 39.418 42.5697C41.0429 37.5816 45.4863 34.0435 50.7116 33.5769C50.9742 33.5533 51.2369 33.5375 51.4995 33.5297H51.8908H128.844C129.136 33.5297 129.422 33.5297 129.708 33.5586C130.421 33.6025 131.128 33.7061 131.823 33.8685C134.112 34.4022 136.216 35.5426 137.913 37.1699C137.984 37.2355 138.053 37.3038 138.121 37.3721C140.477 39.7228 141.847 42.8836 141.953 46.2099V46.6485C141.953 46.6485 141.953 46.9112 141.953 47.0215C141.97 47.6379 142.032 48.2523 142.137 48.86C142.158 48.9887 142.184 49.1226 142.207 49.246C142.257 49.4903 142.315 49.7346 142.376 49.9736C142.577 50.7418 142.849 51.4899 143.187 52.2086C143.303 52.4555 143.426 52.6998 143.555 52.9361C143.615 53.0491 143.678 53.1594 143.744 53.2697C144.137 53.9431 144.591 54.5795 145.099 55.1712C145.474 55.6095 145.877 56.0219 146.307 56.4056C146.499 56.579 146.696 56.7444 146.896 56.9072C147.628 57.4875 148.42 57.9876 149.259 58.399C149.425 58.4831 149.593 58.5619 149.764 58.638C151.437 59.3805 153.248 59.7626 155.079 59.7595H193.464C194.218 59.7595 194.961 59.7989 195.697 59.8725C198.351 60.1426 200.934 60.9004 203.313 62.1075C204.973 62.9511 206.518 64.0022 207.912 65.2356C208.038 65.3485 208.162 65.4588 208.285 65.5744C208.409 65.6899 208.493 65.7661 208.592 65.8659C208.821 66.0839 209.041 66.3045 209.252 66.533C209.336 66.6144 209.412 66.6985 209.488 66.7956C209.499 66.8023 209.508 66.8112 209.514 66.8219C209.596 66.9086 209.674 66.9953 209.748 67.0846C209.822 67.1738 209.937 67.2947 210.026 67.4023C210.158 67.5521 210.289 67.7044 210.41 67.8593C210.504 67.9723 210.596 68.0878 210.672 68.206C210.749 68.3242 210.848 68.4319 210.935 68.5475C211.022 68.663 211.114 68.7838 211.198 68.9046C211.236 68.9537 211.273 69.0036 211.308 69.0543C211.479 69.296 211.644 69.5402 211.804 69.7897C211.91 69.9552 212.015 70.1207 212.117 70.2888C212.296 70.5829 212.466 70.8823 212.642 71.1844C212.879 71.6221 213.101 72.0686 213.309 72.5238C213.497 72.9283 213.672 73.3398 213.835 73.7582C214.117 74.4883 214.358 75.2336 214.557 75.9907C214.667 76.3978 214.764 76.8101 214.848 77.2251C215 77.9636 215.111 78.7097 215.182 79.4601C215.253 80.1714 215.288 80.8858 215.287 81.6007V99.5416C215.286 103.338 216.793 106.979 219.478 109.663C222.163 112.347 225.805 113.853 229.601 113.85H251.434C253.588 113.851 255.708 114.393 257.598 115.426C258.517 115.928 259.373 116.538 260.146 117.244C260.29 117.375 260.432 117.506 260.569 117.648C260.89 117.969 261.194 118.307 261.48 118.659C265.311 123.398 265.311 130.17 261.48 134.909C261.194 135.261 260.89 135.599 260.569 135.92C258.56 137.936 255.94 139.229 253.118 139.597C252.56 139.671 251.997 139.708 251.434 139.707C250.662 139.707 249.893 139.817 249.152 140.033C248.408 140.252 247.7 140.578 247.051 141.002C246.849 141.131 246.654 141.265 246.465 141.414C244.489 142.951 243.335 145.314 243.337 147.817V173.748C243.344 177.603 242.006 181.341 239.555 184.317C239.21 184.739 238.844 185.144 238.457 185.53C237.697 186.291 236.864 186.975 235.97 187.573C235.789 187.699 235.605 187.818 235.418 187.933C235.156 188.096 234.893 188.251 234.612 188.398L234.229 188.6C234.196 188.619 234.163 188.636 234.129 188.65C234 188.716 233.866 188.779 233.74 188.839C233.726 188.849 233.71 188.857 233.693 188.86C233.548 188.929 233.404 188.994 233.26 189.055C233.115 189.115 232.95 189.186 232.795 189.246C232.311 189.441 231.817 189.61 231.316 189.753C230.756 189.916 230.188 190.049 229.614 190.152C228.915 190.275 228.209 190.354 227.5 190.389C227.237 190.402 226.951 190.41 226.675 190.41C220.897 190.407 216.037 194.741 215.382 200.482C215.332 200.909 215.307 201.339 215.308 201.769C215.307 204.782 216.504 207.672 218.635 209.803C220.766 211.933 223.657 213.13 226.67 213.128H244.666C245.462 213.127 246.257 213.183 247.046 213.294C247.754 213.39 248.456 213.532 249.147 213.719C249.38 213.782 249.612 213.85 249.843 213.921C252.496 214.754 254.908 216.214 256.876 218.179Z" fill="#F3F4FE"/>
<path d="M14.4988 65.3538V109.099C13.7678 108.542 13.0665 107.946 12.3977 107.316V67.1318L12.466 67.0688C12.663 66.885 12.86 66.7064 13.0622 66.5304C13.5314 66.1224 14.0103 65.7302 14.4988 65.3538Z" fill="#EFF1FD"/>
<path d="M12.3977 223.177C12.96 221.948 13.6652 220.79 14.4988 219.726V241.097C13.7579 240.159 13.1179 239.146 12.5894 238.074C12.5185 237.932 12.4502 237.79 12.3845 237.646L12.3977 223.177Z" fill="#EFF1FD"/>
<path d="M34.0628 59.1738V114.688H31.9617V59.7175C32.6847 59.6391 33.3925 59.456 34.0628 59.1738V59.1738Z" fill="#EFF1FD"/>
<path d="M33.9342 141.398C33.9736 141.375 34.013 141.351 34.055 141.33V186.922C33.3283 186.507 32.628 186.057 31.9539 185.572V142.683C32.5947 142.222 33.2548 141.794 33.9342 141.398Z" fill="#EFF1FD"/>
<path d="M31.9485 213.112H34.0627V247.705H31.9485V213.112Z" fill="#EFF1FD"/>
<path d="M53.6164 33.5244V114.68H51.5022V33.5244H51.8935H53.6164Z" fill="#EFF1FD"/>
<path d="M51.5022 137.855H53.6164V190.783C52.9247 190.597 52.2167 190.477 51.5022 190.425L51.5022 137.855Z" fill="#EFF1FD"/>
<path d="M51.5022 213.081C52.2168 213.03 52.9248 212.91 53.6164 212.724V247.705H51.5022V213.081Z" fill="#EFF1FD"/>
<path d="M73.1672 33.5244V116.826C72.5076 116.354 71.7987 115.955 71.053 115.636V33.5244L73.1672 33.5244Z" fill="#EFF1FD"/>
<path d="M71.053 136.907C71.7976 136.587 72.5063 136.189 73.1672 135.72V247.705H71.053V136.907Z" fill="#EFF1FD"/>
<path d="M90.6067 33.5244H92.721V247.705H90.6067V33.5244Z" fill="#EFF1FD"/>
<path d="M110.16 33.5244H112.274V247.705H110.16V33.5244Z" fill="#EFF1FD"/>
<path d="M131.825 33.8633V247.705H129.711V33.5533C130.423 33.5973 131.131 33.7009 131.825 33.8633Z" fill="#EFF1FD"/>
<path d="M151.379 59.2317V247.705H149.278V58.4017C149.443 58.4858 149.611 58.5646 149.782 58.6407C150.301 58.8726 150.834 59.07 151.379 59.2317Z" fill="#EFF1FD"/>
<path d="M168.818 59.7622H170.932V247.705H168.818V59.7622Z" fill="#EFF1FD"/>
<path d="M188.369 59.7622H190.483V247.705H188.369V59.7622Z" fill="#EFF1FD"/>
<path d="M210.037 67.3918V247.705H207.936V65.2382C208.062 65.3511 208.185 65.4614 208.309 65.577C208.432 65.6925 208.516 65.7687 208.616 65.8685C208.845 66.0865 209.065 66.3071 209.275 66.5356C209.359 66.617 209.435 66.7011 209.512 66.7982C209.522 66.8049 209.531 66.8138 209.538 66.8245C209.619 66.9112 209.698 66.9978 209.772 67.0871C209.845 67.1764 209.948 67.2894 210.037 67.3918Z" fill="#EFF1FD"/>
<path d="M229.601 113.85V190.137C228.902 190.26 228.196 190.339 227.487 190.373V113.682C228.186 113.79 228.893 113.846 229.601 113.85Z" fill="#EFF1FD"/>
<path d="M227.476 213.112H229.59V247.705H227.476V213.112Z" fill="#EFF1FD"/>
<path d="M249.141 113.85V140.017C248.398 140.236 247.69 140.563 247.04 140.986V113.85L249.141 113.85Z" fill="#EFF1FD"/>
<path d="M249.141 213.703V247.114C248.451 247.302 247.749 247.445 247.04 247.542V213.278C247.749 213.374 248.451 213.516 249.141 213.703Z" fill="#EFF1FD"/>
<rect x="42.7325" y="252.435" width="19.4511" height="4.62514" rx="2.31257" transform="rotate(-180 42.7325 252.435)" fill="#7986BF"/>
<rect x="257.336" y="252.435" width="212.723" height="4.62514" rx="2.31257" transform="rotate(-180 257.336 252.435)" fill="#7986BF"/>
<path d="M58.4279 48.2139H70.5356C70.8589 48.2118 71.1697 48.3391 71.3987 48.5676C71.6276 48.796 71.7556 49.1065 71.7542 49.4299V78.4359H58.4279V48.2139Z" fill="#6675AD"/>
<path d="M57.5717 48.2139H69.6795V78.4359H56.3505V49.4299C56.3505 49.1088 56.478 48.8008 56.7051 48.5737C56.9322 48.3467 57.2401 48.2191 57.5612 48.2191L57.5717 48.2139Z" fill="#7986BF"/>
<ellipse cx="62.8271" cy="57.5455" rx="3.19896" ry="3.19895" fill="#6675AD"/>
<ellipse cx="62.8272" cy="57.5454" rx="1.4524" ry="1.45239" fill="#F3F4FE"/>
<ellipse cx="62.8271" cy="72.403" rx="5.20026" ry="5.20028" fill="#6675AD"/>
<ellipse cx="62.8271" cy="72.4031" rx="2.35851" ry="2.35851" fill="#F3F4FE"/>
<path d="M84.5291 48.2139H96.6368C97.3055 48.2139 97.8475 48.7559 97.8475 49.4246V78.4359H84.5291V48.2139Z" fill="#6675AD"/>
<path d="M83.6624 48.2139H95.7701V78.4359H82.4517V49.4299C82.4503 49.1079 82.5772 48.7985 82.8044 48.5703C83.0317 48.3421 83.3404 48.2139 83.6624 48.2139V48.2139Z" fill="#7986BF"/>
<ellipse cx="88.9285" cy="57.5455" rx="3.19896" ry="3.19895" fill="#6675AD"/>
<ellipse cx="88.9282" cy="57.5454" rx="1.4524" ry="1.45239" fill="#F3F4FE"/>
<circle cx="88.9283" cy="72.403" r="5.20028" fill="#6675AD"/>
<circle cx="88.9283" cy="72.4031" r="2.35851" fill="#F3F4FE"/>
<path d="M37.6505 84.4949H116.319L111.14 78.4358H42.8324L37.6505 84.4949Z" fill="#D2D6FA"/>
<path d="M101.585 84.4923V92.6237L96.0642 96.5081V84.4923H101.585Z" fill="#D2D6FA"/>
<path d="M59.2474 84.4923V96.5081L53.7267 92.6237V84.4923H59.2474Z" fill="#D2D6FA"/>
<path d="M53.7267 84.4923H59.2474V87.0058H53.7267V84.4923Z" fill="#969ECC"/>
<path d="M96.0642 84.4923H101.585V87.0058H96.0642V84.4923Z" fill="#969ECC"/>
<path d="M173.385 83.2684H203.355V116.923H173.385V83.2684Z" fill="#D2D6FA"/>
<path d="M176.009 86.2126H200.734V113.976H176.009V86.2126Z" fill="#F3F4FE"/>
<path d="M183.339 95.2816L189.971 107.518L178.157 108.303L183.339 95.2816Z" fill="#D2D6FA"/>
<path d="M197.824 89.4274L193.201 97.7977L188.369 91.2527L197.824 89.4274Z" fill="#D2D6FA"/>
<path d="M197.099 101.792L196.13 107.571L192.007 104.771L197.099 101.792Z" fill="#D2D6FA"/>
<ellipse cx="140.902" cy="80.5948" rx="7.00723" ry="7.00724" fill="#332D52"/>
<path d="M131.539 107.115C135.214 104.294 140.48 104.985 143.302 108.66C146.124 112.334 145.432 117.601 141.758 120.422L120.454 136.781C116.779 139.603 111.513 138.911 108.691 135.237C105.869 131.562 106.561 126.296 110.236 123.474L131.539 107.115Z" fill="#FAEEDE"/>
<ellipse cx="115.371" cy="129.514" rx="9.0033" ry="9.0033" fill="#F2E6D7"/>
<path d="M94.4818 105.98C92.6982 102.595 93.9959 98.4056 97.3804 96.6219C100.765 94.8382 104.954 96.1359 106.738 99.5204L120.624 125.869C122.408 129.253 121.11 133.443 117.726 135.226C114.341 137.01 110.151 135.712 108.368 132.328L94.4818 105.98Z" fill="#EF948C"/>
<path d="M102.833 95.6232C106.309 97.1319 107.904 101.173 106.395 104.649C104.887 108.125 100.846 109.72 97.3694 108.212L91.8618 105.822C88.3856 104.313 86.7905 100.272 88.2991 96.7957C89.8077 93.3195 93.8488 91.7244 97.325 93.233L102.833 95.6232Z" fill="#EF948C"/>
<path d="M101.617 95.0952C102.874 95.6409 103.451 97.1026 102.905 98.36C102.36 99.6175 100.898 100.194 99.6406 99.6487L86.893 94.1165C85.6356 93.5708 85.0586 92.1091 85.6043 90.8516C86.15 89.5942 87.6117 89.0172 88.8692 89.5629L101.617 95.0952Z" fill="#EF948C"/>
<path d="M105.243 96.4107C105.997 97.5484 105.686 99.0819 104.548 99.8358C103.41 100.59 101.877 100.279 101.123 99.1408L96.8718 92.7253C96.1179 91.5876 96.4291 90.0541 97.5668 89.3002C98.7045 88.5463 100.238 88.8575 100.992 89.9952L105.243 96.4107Z" fill="#EA8681"/>
<ellipse cx="101.115" cy="99.4575" rx="4.89035" ry="4.89036" fill="#EA8681"/>
<path d="M131.539 107.115C135.214 104.294 140.48 104.985 143.302 108.66C146.124 112.334 145.432 117.601 141.758 120.422L120.454 136.781C116.779 139.603 111.513 138.911 108.691 135.237C105.869 131.562 106.561 126.296 110.236 123.474L131.539 107.115Z" fill="#F2E6D7"/>
<ellipse cx="115.371" cy="129.514" rx="9.0033" ry="9.0033" fill="#FAEEDE"/>
<path d="M94.4818 105.98C92.6982 102.595 93.9959 98.4056 97.3804 96.6219C100.765 94.8382 104.954 96.1359 106.738 99.5204L120.624 125.869C122.408 129.253 121.11 133.443 117.726 135.226C114.341 137.01 110.151 135.712 108.368 132.328L94.4818 105.98Z" fill="#EF948C"/>
<path d="M102.832 95.6232C106.309 97.1319 107.904 101.173 106.395 104.649C104.886 108.125 100.845 109.72 97.3692 108.212L91.8615 105.822C88.3853 104.313 86.7902 100.272 88.2989 96.7957C89.8075 93.3195 93.8485 91.7244 97.3248 93.233L102.832 95.6232Z" fill="#EF948C"/>
<path d="M88.3007 96.7891C88.5466 96.2241 88.8663 95.6942 89.2514 95.2133C88.2361 98.5479 89.8881 102.113 93.0886 103.494L93.7583 103.786L96.3664 104.918L98.2653 108.524L109.59 130.016C110.681 132.082 112.739 133.459 115.065 133.68C117.39 133.9 119.671 132.935 121.131 131.111C120.313 133.797 117.955 135.725 115.16 135.991C112.364 136.258 109.685 134.811 108.374 132.327L95.1503 107.229L91.87 105.806C90.2002 105.084 88.8857 103.729 88.2162 102.037C87.5466 100.346 87.5771 98.4579 88.3007 96.7891Z" fill="#EA8681"/>
<path d="M101.617 95.0953C102.874 95.641 103.451 97.1027 102.905 98.3602C102.36 99.6176 100.898 100.195 99.6406 99.6489L86.893 94.1166C85.6356 93.5709 85.0586 92.1092 85.6043 90.8518C86.15 89.5943 87.6117 89.0173 88.8692 89.5631L101.617 95.0953Z" fill="#EF948C"/>
<path d="M105.243 96.4107C105.997 97.5484 105.686 99.0819 104.548 99.8358C103.41 100.59 101.877 100.279 101.123 99.1408L96.8718 92.7253C96.1179 91.5876 96.4291 90.0542 97.5668 89.3003C98.7045 88.5463 100.238 88.8575 100.992 89.9952L105.243 96.4107Z" fill="#EF948C"/>
<ellipse cx="101.115" cy="99.4576" rx="4.89035" ry="4.89036" fill="#EF948C"/>
<ellipse cx="141.372" cy="116.009" rx="13.1478" ry="13.1478" fill="#F2E6D7"/>
<path d="M157.396 175.386C146.449 175.634 137.372 166.961 137.124 156.013L136.448 126.25C136.2 115.302 144.873 106.226 155.821 105.977C166.769 105.729 175.846 114.403 176.094 125.35L176.769 155.113C177.018 166.061 168.344 175.137 157.396 175.386Z" fill="#FAEEDE"/>
<path d="M130.744 115.455C130.582 107.346 137.023 100.642 145.132 100.479L167.228 100.037C175.336 99.8753 182.041 106.317 182.203 114.425C182.47 127.804 171.842 138.866 158.464 139.133L155.449 139.193C142.072 139.46 131.011 128.832 130.744 115.455V115.455Z" fill="#FAEEDE"/>
<path d="M158.05 138.848H158.074C171.448 138.544 182.044 127.456 181.74 114.081C181.556 105.975 174.836 99.5525 166.73 99.7359L144.64 100.238C143.63 100.26 142.626 100.386 141.643 100.616L162.848 100.132H163.19C171.165 100.136 177.678 106.505 177.861 114.478C178.13 126.361 169.738 136.685 158.05 138.848Z" fill="#FFF7EE"/>
<path d="M148.274 89.514L148.558 102.026C148.64 105.924 151.826 109.04 155.726 109.033H155.888C157.79 108.99 159.597 108.192 160.911 106.816C162.224 105.439 162.936 103.597 162.89 101.695L162.796 97.409L162.607 89.1857C162.52 85.2899 159.336 82.1775 155.439 82.1785H155.274C151.316 82.2731 148.183 85.5562 148.274 89.514Z" fill="#EF948C"/>
<path d="M114.334 176.365C108.119 176.506 102.967 171.582 102.826 165.368C102.685 159.153 107.609 154.001 113.823 153.86L165.458 152.688C171.673 152.547 176.825 157.471 176.966 163.685C177.107 169.9 172.183 175.052 165.969 175.193L114.334 176.365Z" fill="#332D52"/>
<path d="M154.52 164.752V231.965H177.034V164.752C177.034 158.536 171.994 153.496 165.777 153.496C159.56 153.496 154.52 158.536 154.52 164.752Z" fill="#666DA2"/>
<path d="M154.52 164.752V231.965H160.374V174.972C160.375 170.997 162.472 167.316 165.891 165.289C169.31 163.262 173.545 163.187 177.034 165.094V164.742C177.034 158.525 171.994 153.485 165.777 153.485C159.56 153.485 154.52 158.525 154.52 164.742L154.52 164.752Z" fill="#555A8B"/>
<path d="M154.52 222.279V231.959H177.034V225.814L154.52 222.279Z" fill="#141334"/>
<path d="M80.0825 224.419L100.151 232.464L102.417 226.588L124.519 169.333C126.757 163.531 123.868 157.013 118.066 154.775C112.263 152.537 105.746 155.426 103.507 161.228L82.7982 214.906L80.0904 221.911L80.0825 224.419Z" fill="#332D52"/>
<path d="M93.6501 241.522L77.8982 235.441L81.2297 226.811L96.9817 232.892L93.6501 241.522Z" fill="#EA8681"/>
<path d="M174.221 242.357H157.336V233.711H174.221V242.357Z" fill="#EF948C"/>
<path d="M148.274 89.514L148.558 102.026C148.572 102.683 148.676 103.336 148.868 103.964H149.393C154.634 103.967 159.58 101.543 162.788 97.3985L162.599 89.1752C162.512 85.2794 159.328 82.167 155.431 82.168H155.274C153.371 82.2134 151.565 83.013 150.252 84.3908C148.939 85.7685 148.228 87.6115 148.274 89.514Z" fill="#EA8681"/>
<path d="M135.838 83.6519C135.839 92.6531 142.872 100.085 151.859 100.582C152.161 100.597 152.463 100.605 152.771 100.605C158.877 100.681 164.553 97.467 167.629 92.1908C170.704 86.9146 170.704 80.3919 167.629 75.1157C164.553 69.8395 158.877 66.6251 152.771 66.7011C152.463 66.7011 152.161 66.7011 151.859 66.7248C142.872 67.2198 135.839 74.6513 135.838 83.6519Z" fill="#EF948C"/>
<path d="M145.795 88.2271C145.796 89.2309 146.197 90.1929 146.909 90.9008C146.996 90.9874 147.087 91.0689 147.171 91.145C147.85 91.7034 148.702 92.0072 149.58 92.0039H149.735C151.704 91.9978 153.339 90.4836 153.496 88.5212C153.496 88.4162 153.496 88.3111 153.496 88.2061C153.498 88.0091 153.42 87.8198 153.281 87.6808C153.141 87.543 152.952 87.4665 152.755 87.468L146.499 87.4838C146.102 87.4994 145.789 87.8293 145.795 88.2271Z" fill="#962F4A"/>
<path d="M149.664 91.4207C149.664 91.6165 149.684 91.8117 149.722 92.0038H149.743C151.711 91.9977 153.347 90.4835 153.504 88.5212C153.232 88.4415 152.949 88.4017 152.666 88.403C151.868 88.4051 151.103 88.7242 150.54 89.2901C149.977 89.856 149.662 90.6224 149.664 91.4207Z" fill="#E1617F"/>
<path d="M146.665 87.4916C146.696 88.2349 147.844 88.8259 149.252 88.8232C150.659 88.8206 151.802 88.2218 151.828 87.4785L146.665 87.4916Z" fill="white"/>
<path d="M135.838 83.6519C135.839 92.653 142.872 100.085 151.859 100.582C152.327 100.558 152.792 100.513 153.251 100.448C144.858 99.2953 138.604 92.1238 138.604 83.6519C138.604 75.1799 144.858 68.0085 153.251 66.8561C152.792 66.793 152.327 66.7484 151.859 66.7247C142.872 67.2197 135.839 74.6513 135.838 83.6519Z" fill="#EA8681"/>
<path d="M166.777 113.806V113.982C166.943 119.581 170.678 124.022 175.237 124.088H175.531C180.274 123.965 184.041 119.156 183.936 113.351C183.883 110.137 183.2 107.536 181.309 105.659C180.178 104.616 178.834 103.832 177.37 103.36C176.174 103.006 174.905 102.973 173.693 103.266C169.69 104.232 166.693 108.621 166.777 113.806Z" fill="#FAEEDE"/>
<path d="M166.439 113.588V113.766C166.583 117.808 168.574 121.265 171.4 122.959C169.926 120.981 169.101 118.595 169.036 116.13C169.036 116.069 169.036 116.012 169.036 115.951C168.923 110.683 171.988 106.234 176.128 105.278C176.629 105.158 177.141 105.093 177.656 105.083C178.426 105.068 179.194 105.172 179.933 105.391C180.578 105.582 181.196 105.856 181.772 106.205C180.669 104.701 179.115 103.587 177.336 103.027C176.099 102.657 174.787 102.618 173.53 102.914C169.388 103.878 166.323 108.322 166.439 113.588Z" fill="#F2E6D7"/>
<path d="M169.961 117.828C168.008 113.627 169.831 108.638 174.032 106.685C178.233 104.732 183.222 106.555 185.175 110.756L196.497 135.113C198.45 139.315 196.627 144.304 192.426 146.257C188.224 148.209 183.235 146.387 181.283 142.185L169.961 117.828Z" fill="#FAEEDE"/>
<ellipse cx="188.293" cy="138.502" rx="9.0033" ry="9.0033" fill="#F2E6D7"/>
<path d="M169.961 117.828C168.008 113.627 169.831 108.638 174.032 106.685C178.233 104.732 183.222 106.555 185.175 110.756L196.497 135.113C198.45 139.315 196.627 144.304 192.426 146.257C188.224 148.209 183.235 146.387 181.283 142.185L169.961 117.828Z" fill="#FAEEDE"/>
<path d="M169.643 111.557C171.285 108.965 174.212 107.476 177.274 107.676C180.336 107.875 183.045 109.73 184.338 112.513L195.657 136.871C196.575 138.84 196.692 141.089 195.983 143.143C196.836 141.798 197.291 140.241 197.296 138.649C197.295 137.429 197.026 136.225 196.508 135.121L185.188 110.764C183.75 107.661 180.571 105.742 177.155 105.915C173.739 106.088 170.77 108.319 169.653 111.552L169.643 111.557Z" fill="#FFF7EE"/>
<ellipse cx="188.293" cy="138.502" rx="9.0033" ry="9.0033" fill="#F2E6D7"/>
<rect x="173.078" y="79.7648" width="41.5391" height="16.2417" rx="8.12083" transform="rotate(-180 173.078 79.7648)" fill="#332D52"/>
<ellipse cx="168.338" cy="80.5948" rx="7.00725" ry="7.00724" fill="#332D52"/>
<ellipse cx="169.59" cy="81.8476" rx="5.75444" ry="5.75446" fill="#49466B"/>
<ellipse cx="169.727" cy="83.6545" rx="5.61787" ry="5.61787" fill="#EF948C"/>
<path d="M169.286 85.4115V81.9C169.286 81.7224 169.371 81.5558 169.515 81.4518C169.659 81.3478 169.844 81.3192 170.013 81.3747C171.005 81.6925 171.677 82.6145 171.677 83.6558C171.677 84.697 171.005 85.619 170.013 85.9368C169.845 85.9911 169.66 85.9619 169.516 85.8582C169.373 85.7545 169.287 85.5887 169.286 85.4115H169.286Z" fill="#EA8681"/>
<ellipse cx="140.902" cy="69.1751" rx="10.7341" ry="10.7341" fill="#332D52"/>
<path d="M131.145 69.1751C131.143 71.7447 132.241 74.1924 134.162 75.8993C136.082 77.6062 138.642 78.4091 141.194 78.1049C136.676 77.5668 133.274 73.7355 133.274 69.1856C133.274 64.6357 136.676 60.8044 141.194 60.2664C138.642 59.9621 136.082 60.765 134.162 62.4719C132.241 64.1788 131.143 66.6265 131.145 69.1961V69.1751Z" fill="#49466B"/>
<ellipse cx="149.401" cy="62.6827" rx="7.38544" ry="7.38544" fill="#332D52"/>
<path d="M141.194 82.3255C141.233 83.3976 142.113 84.2466 143.186 84.2466C144.259 84.2466 145.139 83.3976 145.178 82.3255C145.178 82.1698 145.16 82.0145 145.123 81.8633C144.91 82.7607 144.108 83.3942 143.186 83.3942C142.263 83.3942 141.462 82.7607 141.249 81.8633C141.212 82.0145 141.193 82.1698 141.194 82.3255Z" fill="#332D52"/>
<path d="M152.138 82.3255C152.138 83.4265 153.03 84.319 154.131 84.319C155.232 84.319 156.125 83.4265 156.125 82.3255C156.125 82.1698 156.107 82.0145 156.069 81.8633C155.854 82.7593 155.053 83.391 154.131 83.391C153.21 83.391 152.408 82.7593 152.193 81.8633C152.156 82.0145 152.137 82.1698 152.138 82.3255Z" fill="#332D52"/>
<path d="M154.522 246.654H175.975C175.976 241.432 172.217 236.969 167.071 236.08C166.469 235.979 165.859 235.928 165.249 235.928C162.404 235.927 159.675 237.057 157.663 239.069C155.652 241.08 154.522 243.809 154.522 246.654Z" fill="#332D52"/>
<path d="M154.523 246.654H159.476C159.479 241.866 162.535 237.613 167.072 236.083C166.469 235.981 165.86 235.93 165.249 235.931C162.404 235.93 159.676 237.059 157.665 239.07C155.653 241.082 154.523 243.81 154.523 246.654Z" fill="#49466B"/>
<path d="M151.552 244.713C151.553 244.923 151.574 245.133 151.615 245.338C151.635 245.439 151.661 245.538 151.691 245.635C151.721 245.732 151.756 245.826 151.797 245.919C151.912 246.195 152.068 246.453 152.259 246.683C152.322 246.759 152.387 246.83 152.458 246.901C152.528 246.971 152.602 247.037 152.679 247.098C153.232 247.556 153.928 247.806 154.646 247.805H177.538C178.804 247.807 179.84 246.798 179.872 245.533C179.903 244.267 178.918 243.208 177.653 243.148L160.493 242.003L154.796 241.622C154.283 241.596 153.772 241.699 153.309 241.921C153.175 241.987 153.045 242.062 152.921 242.145C152.799 242.226 152.683 242.313 152.571 242.407C152.461 242.507 152.358 242.615 152.264 242.73C152.2 242.807 152.14 242.886 152.085 242.969C151.887 243.261 151.741 243.586 151.655 243.928C151.628 244.027 151.607 244.127 151.592 244.227C151.566 244.388 151.553 244.551 151.552 244.713H151.552Z" fill="#332D52"/>
<path d="M151.552 244.713C151.553 244.923 151.574 245.133 151.615 245.338C151.634 245.439 151.66 245.538 151.691 245.635C151.72 245.732 151.755 245.827 151.797 245.919C151.912 246.195 152.068 246.453 152.259 246.683C152.322 246.759 152.387 246.83 152.458 246.901C152.528 246.971 152.602 247.037 152.679 247.098C153.232 247.556 153.928 247.806 154.646 247.805H161.987C160.574 247.808 159.338 246.853 158.985 245.484C158.633 244.116 159.253 242.682 160.493 242.003L154.796 241.622C154.283 241.596 153.772 241.699 153.309 241.921C153.041 242.051 152.792 242.218 152.571 242.418C152.461 242.518 152.358 242.626 152.264 242.741C152.199 242.817 152.14 242.896 152.085 242.98C151.887 243.272 151.741 243.596 151.655 243.939C151.628 244.037 151.607 244.137 151.592 244.238C151.566 244.395 151.553 244.554 151.552 244.713H151.552Z" fill="#49466B"/>
<path d="M94.532 244.226L77.2956 236.981L80.0273 230.482L94.4624 236.55C95.2053 236.863 95.7938 237.457 96.0983 238.204C96.4028 238.95 96.3984 239.786 96.0861 240.529L94.532 244.226Z" fill="#49466B"/>
<path d="M64.2717 233.819L84.0485 242.131C85.5334 238.599 85.0208 234.542 82.7038 231.49C80.3867 228.437 76.6173 226.853 72.8154 227.333C69.0134 227.814 65.7566 230.286 64.2717 233.819H64.2717Z" fill="#332D52"/>
<path d="M64.2717 233.819L69.8292 236.167C71.6744 231.775 76.1951 229.126 80.9283 229.664C78.3067 227.534 74.8347 226.762 71.5576 227.582C68.2805 228.402 65.581 230.718 64.2717 233.832L64.2717 233.819Z" fill="#49466B"/>
<path d="M95.8409 243.284L67.4311 229.688C66.6677 229.323 65.788 229.286 64.997 229.587C64.2061 229.888 63.5728 230.499 63.2446 231.279C62.9261 232.036 62.9213 232.888 63.2311 233.648C63.5409 234.408 64.1401 235.014 64.8967 235.332L93.9315 247.537C94.5013 247.777 95.143 247.78 95.7154 247.547C96.2878 247.313 96.744 246.862 96.9834 246.292C97.4654 245.145 96.9627 243.822 95.8409 243.284Z" fill="#332D52"/>
<path d="M63.2448 231.282C62.5832 232.856 63.3227 234.669 64.8968 235.332L71.6624 238.176C70.3186 237.617 69.546 236.198 69.8064 234.766C70.0669 233.334 71.29 232.277 72.7444 232.227L67.4339 229.682C66.6691 229.317 65.788 229.281 64.9962 229.584C64.2044 229.886 63.5713 230.5 63.2448 231.282Z" fill="#49466B"/>
<path d="M188.295 151.171L190.068 156.225L193.186 165.125L222.165 247.818H228.629L206.415 165.125L204.025 156.225L202.667 151.171H188.295Z" fill="#441242"/>
<path d="M190.068 156.225L193.186 165.125H206.415L204.025 156.225H190.068Z" fill="#2F073A"/>
<path d="M95.7228 151.171L93.95 156.225L90.8324 165.125L61.8527 247.818H55.3892L77.6033 165.125L79.9933 156.225L81.3511 151.171H95.7228Z" fill="#441242"/>
<path d="M93.95 156.225L90.8325 165.125H77.6033L79.9933 156.225H93.95Z" fill="#2F073A"/>
<path d="M220.805 160.072L66.8536 160.072C64.7302 160.074 63.0065 158.356 63.0007 156.232V151.185L224.658 151.185V156.232C224.652 158.356 222.929 160.074 220.805 160.072Z" fill="#441242"/>
<rect x="244.07" y="153.548" width="200.481" height="7.0598" rx="3.5299" transform="rotate(-180 244.07 153.548)" fill="#D8BA9F"/>
<path d="M43.5887 150.021C43.5902 151.97 45.1697 153.55 47.1186 153.551H240.54C242.489 153.551 244.07 151.971 244.07 150.021C244.071 149.604 243.997 149.191 243.852 148.8C243.34 150.186 242.018 151.107 240.54 151.106H47.1186C46.1821 151.108 45.2835 150.736 44.6235 150.071C44.2607 149.713 43.9825 149.279 43.8094 148.8C43.6634 149.19 43.5886 149.604 43.5887 150.021Z" fill="#C89F87"/>
<ellipse cx="218.801" cy="156.718" rx="1.30534" ry="1.30531" fill="#D8BA9F"/>
<circle cx="218.517" cy="156.805" r="1.59158" fill="#2F073A"/>
<ellipse cx="218.801" cy="156.718" rx="1.30534" ry="1.30531" fill="#D8BA9F"/>
<path d="M217.496 156.718C217.496 157.444 218.084 158.032 218.809 158.032H218.946C218.303 157.935 217.827 157.383 217.827 156.733C217.827 156.083 218.303 155.53 218.946 155.434C218.9 155.431 218.855 155.431 218.809 155.434C218.095 155.434 217.512 156.004 217.496 156.718H217.496Z" fill="#C89F87"/>
<path d="M218.801 157.433C218.867 157.454 218.937 157.464 219.006 157.464C219.418 157.464 219.752 157.13 219.752 156.718C219.752 156.306 219.418 155.972 219.006 155.972C218.937 155.972 218.867 155.983 218.801 156.004C219.123 156.092 219.346 156.385 219.346 156.718C219.346 157.052 219.123 157.345 218.801 157.433H218.801Z" fill="#F5EAE4"/>
<ellipse cx="211.5" cy="156.718" rx="1.30533" ry="1.30531" fill="#D8BA9F"/>
<ellipse cx="211.216" cy="156.805" rx="1.59161" ry="1.59158" fill="#2F073A"/>
<ellipse cx="211.5" cy="156.718" rx="1.30533" ry="1.30531" fill="#D8BA9F"/>
<path d="M210.197 156.718C210.197 157.444 210.785 158.032 211.51 158.032H211.647C211.004 157.935 210.528 157.383 210.528 156.733C210.528 156.083 211.004 155.53 211.647 155.434C211.602 155.431 211.556 155.431 211.51 155.434C210.796 155.434 210.213 156.004 210.197 156.718H210.197Z" fill="#C89F87"/>
<path d="M211.5 157.433C211.566 157.454 211.635 157.464 211.705 157.464C212.117 157.464 212.451 157.13 212.451 156.718C212.451 156.306 212.117 155.972 211.705 155.972C211.635 155.972 211.566 155.983 211.5 156.004C211.822 156.092 212.045 156.385 212.045 156.718C212.045 157.052 211.822 157.345 211.5 157.433H211.5Z" fill="#F5EAE4"/>
<ellipse cx="69.5612" cy="156.718" rx="1.30532" ry="1.30531" fill="#D8BA9F"/>
<ellipse cx="69.8448" cy="156.805" rx="1.5916" ry="1.59158" fill="#2F073A"/>
<ellipse cx="69.5612" cy="156.718" rx="1.30532" ry="1.30531" fill="#D8BA9F"/>
<path d="M70.8665 156.718C70.8665 157.444 70.2786 158.032 69.5533 158.032H69.4167C70.0598 157.935 70.5357 157.383 70.5357 156.733C70.5357 156.083 70.0598 155.53 69.4167 155.434C69.4622 155.431 69.5078 155.431 69.5533 155.434C70.2674 155.434 70.8508 156.004 70.8665 156.718Z" fill="#C89F87"/>
<path d="M69.5611 157.433C69.4949 157.454 69.4258 157.464 69.3563 157.464C69.0898 157.464 68.8435 157.322 68.7103 157.091C68.577 156.86 68.577 156.576 68.7103 156.345C68.8435 156.115 69.0898 155.972 69.3563 155.972C69.4258 155.972 69.4949 155.983 69.5611 156.004C69.2425 156.095 69.0231 156.387 69.0231 156.718C69.0231 157.05 69.2425 157.341 69.5611 157.433Z" fill="#F5EAE4"/>
<ellipse cx="76.8627" cy="156.718" rx="1.30532" ry="1.30531" fill="#D8BA9F"/>
<ellipse cx="77.1463" cy="156.805" rx="1.5916" ry="1.59158" fill="#2F073A"/>
<ellipse cx="76.8627" cy="156.718" rx="1.30532" ry="1.30531" fill="#D8BA9F"/>
<path d="M78.1653 156.718C78.1653 157.444 77.5774 158.032 76.8521 158.032H76.7156C77.3587 157.935 77.8345 157.383 77.8345 156.733C77.8345 156.083 77.3587 155.53 76.7156 155.434C76.7611 155.431 76.8067 155.431 76.8521 155.434C77.5663 155.434 78.1496 156.004 78.1653 156.718Z" fill="#C89F87"/>
<path d="M76.8626 157.433C76.7964 157.454 76.7273 157.464 76.6578 157.464C76.2458 157.464 75.9119 157.13 75.9119 156.718C75.9119 156.306 76.2458 155.972 76.6578 155.972C76.7273 155.972 76.7964 155.983 76.8626 156.004C76.5407 156.092 76.3175 156.385 76.3175 156.718C76.3175 157.052 76.5407 157.345 76.8626 157.433Z" fill="#F5EAE4"/>
<path d="M155.819 133.115C157.184 132.99 158.392 133.995 158.517 135.36C158.641 136.725 157.636 137.933 156.271 138.058L148.574 138.763C147.209 138.888 146.001 137.882 145.876 136.517C145.751 135.152 146.756 133.945 148.121 133.82L155.819 133.115Z" fill="#EA8681"/>
<ellipse cx="156.789" cy="137.682" rx="4.89034" ry="4.89036" fill="#EA8681"/>
<path d="M159.395 146.628C155.569 146.59 152.499 143.458 152.537 139.633C152.575 135.807 155.707 132.737 159.533 132.775L189.315 133.071C193.14 133.109 196.211 136.241 196.173 140.067C196.135 143.892 193.002 146.963 189.177 146.925L159.395 146.628Z" fill="#EF948C"/>
<path d="M154.208 134.346C157.187 132.004 161.5 132.52 163.843 135.499C166.185 138.478 165.669 142.791 162.69 145.134L157.971 148.845C154.992 151.187 150.678 150.671 148.336 147.693C145.993 144.714 146.509 140.4 149.488 138.058L154.208 134.346Z" fill="#EF948C"/>
<path d="M153.164 135.165C154.242 134.317 155.802 134.504 156.65 135.581C157.497 136.659 157.31 138.219 156.233 139.067L145.309 147.656C144.232 148.504 142.671 148.317 141.824 147.239C140.977 146.162 141.164 144.602 142.241 143.754L153.164 135.165Z" fill="#EF948C"/>
<path d="M155.818 133.115C157.183 132.99 158.391 133.995 158.516 135.36C158.641 136.725 157.636 137.933 156.271 138.058L148.574 138.763C147.209 138.888 146.001 137.882 145.876 136.517C145.751 135.152 146.756 133.945 148.121 133.82L155.818 133.115Z" fill="#EF948C"/>
<ellipse cx="156.789" cy="137.682" rx="4.89034" ry="4.89037" fill="#EF948C"/>
<path d="M159.395 146.628C155.569 146.59 152.499 143.458 152.537 139.633C152.575 135.807 155.707 132.737 159.533 132.775L189.315 133.071C193.14 133.109 196.211 136.241 196.173 140.067C196.135 143.892 193.002 146.963 189.177 146.925L159.395 146.628Z" fill="#EF948C"/>
<path d="M154.208 134.346C157.187 132.004 161.5 132.52 163.843 135.499C166.185 138.478 165.669 142.791 162.69 145.134L157.971 148.845C154.992 151.187 150.678 150.671 148.336 147.693C145.993 144.714 146.509 140.4 149.488 138.058L154.208 134.346Z" fill="#EF948C"/>
<path d="M147.67 145.958C150.013 148.937 154.327 149.453 157.307 147.111L158.095 146.488L160.112 144.913L162.953 144.939L188.477 145.202C192.302 145.239 195.435 142.169 195.474 138.344V138.273C195.474 137.712 195.405 137.152 195.269 136.608C195.856 137.644 196.164 138.815 196.162 140.006V140.077C196.124 143.903 192.993 146.974 189.168 146.938L160.802 146.657L157.992 148.865C156.16 150.304 153.722 150.716 151.519 149.958C149.316 149.2 147.647 147.377 147.087 145.115C147.261 145.41 147.455 145.692 147.67 145.958Z" fill="#F3A6A0"/>
<path d="M153.165 135.165C154.242 134.317 155.803 134.504 156.65 135.581C157.497 136.659 157.311 138.219 156.233 139.067L145.31 147.656C144.232 148.504 142.672 148.317 141.824 147.239C140.977 146.162 141.164 144.602 142.241 143.754L153.165 135.165Z" fill="#EF948C"/>
<path d="M156.537 139.62C157.477 138.88 158.84 139.043 159.579 139.984C160.319 140.925 160.156 142.287 159.215 143.026L156.044 145.52C155.104 146.26 153.741 146.097 153.002 145.156C152.262 144.216 152.425 142.853 153.366 142.114L156.537 139.62Z" fill="#F3A6A0"/>
<ellipse cx="139.86" cy="82.491" rx="7.24623" ry="7.24623" stroke="white" stroke-width="2.85"/>
<ellipse cx="156.957" cy="82.491" rx="7.24625" ry="7.24623" stroke="white" stroke-width="2.85"/>
<path d="M147.101 82.7746H149.717" stroke="white" stroke-width="2.85"/>
<path d="M80.0825 224.419L100.151 232.464L102.417 226.588L82.7982 214.906L80.0904 221.913L80.0825 224.419Z" fill="#141334"/>
<path d="M109.388 144.301H105.281V143.513C105.281 142.767 105.885 142.163 106.631 142.163H108.041C108.786 142.163 109.391 142.767 109.391 143.513V144.301L109.388 144.301Z" fill="#ABB2D8"/>
<path d="M113.496 144.301H109.388V143.513C109.388 142.767 109.993 142.163 110.738 142.163H112.149C112.894 142.163 113.499 142.767 113.499 143.513V144.301L113.496 144.301Z" fill="#ABB2D8"/>
<path d="M117.606 144.301H113.499V143.513C113.499 142.767 114.103 142.163 114.849 142.163H116.259C117.004 142.163 117.609 142.767 117.609 143.513V144.301L117.606 144.301Z" fill="#ABB2D8"/>
<path d="M121.714 144.301H117.606V143.513C117.606 142.767 118.211 142.163 118.956 142.163H120.367C121.112 142.163 121.717 142.767 121.717 143.513V144.301L121.714 144.301Z" fill="#ABB2D8"/>
<path d="M125.822 144.301H121.714V143.513C121.714 142.767 122.318 142.163 123.064 142.163H124.474C125.22 142.163 125.824 142.767 125.824 143.513V144.301L125.822 144.301Z" fill="#ABB2D8"/>
<path d="M129.932 144.301H125.824V143.513C125.824 142.767 126.429 142.163 127.174 142.163H128.582C129.327 142.163 129.932 142.767 129.932 143.513V144.301L129.932 144.301Z" fill="#ABB2D8"/>
<path d="M134.037 144.301H129.929V143.513C129.929 142.767 130.534 142.163 131.279 142.163H132.69C133.435 142.163 134.04 142.767 134.04 143.513V144.301L134.037 144.301Z" fill="#ABB2D8"/>
<rect x="139.5" y="146.489" width="46.8917" height="3.34866" rx="1.67433" transform="rotate(-180 139.5 146.489)" fill="#5D6295"/>
<path d="M105.525 146.489H66.3912C64.7513 146.489 63.3214 145.374 62.9217 143.783L55.3051 113.485C55.0364 112.415 55.276 111.281 55.9543 110.412C56.6327 109.542 57.6742 109.033 58.7772 109.033H93.3091C94.949 109.033 96.3789 110.148 96.7786 111.739L105.525 146.489Z" fill="#666DA2"/>
<path d="M55.3026 113.488L62.9192 143.783C63.3206 145.374 64.7506 146.489 66.3913 146.491H105.525L104.682 143.142H73.7688C72.1279 143.142 70.6973 142.026 70.2967 140.435L62.6802 110.139C62.5895 109.778 62.555 109.405 62.5777 109.033H58.7747C57.6714 109.034 56.6301 109.543 55.9518 110.413C55.2736 111.284 55.0341 112.418 55.3026 113.488Z" fill="#5D6295"/>
<ellipse cx="77.9632" cy="128.763" rx="1.95929" ry="1.95929" fill="#ABB2D8"/>
<path d="M75.3418 131.694C76.1931 133.009 77.7582 133.674 79.2957 133.375C80.8332 133.076 82.0345 131.872 82.3307 130.334C82.6268 128.796 81.9584 127.232 80.6419 126.383C81.6063 127.902 81.3877 129.886 80.1159 131.158C78.8441 132.429 76.8599 132.648 75.3418 131.684L75.3418 131.694Z" fill="#ABB2D8"/>
<path d="M154.52 233.764H177.034L179.329 227.978L150.423 223.439L154.52 233.764Z" fill="#332D52"/>
<circle cx="175.163" cy="231.353" r="1.40514" fill="#141334"/>
<ellipse cx="175.245" cy="231.734" rx="1.02428" ry="1.0243" fill="#666DA2"/>
<path d="M175.234 232.403C175.279 232.412 175.325 232.416 175.371 232.416C175.732 232.394 176.014 232.094 176.014 231.732C176.014 231.37 175.732 231.07 175.371 231.048C175.325 231.048 175.279 231.053 175.234 231.064C175.549 231.132 175.774 231.411 175.774 231.733C175.774 232.056 175.549 232.335 175.234 232.403Z" fill="#332D52"/>
<path d="M175.403 230.877C175.345 230.864 175.286 230.858 175.227 230.859C174.763 230.884 174.4 231.268 174.4 231.732C174.4 232.197 174.763 232.58 175.227 232.605C175.286 232.606 175.345 232.6 175.403 232.587C175 232.5 174.713 232.144 174.713 231.732C174.713 231.32 175 230.964 175.403 230.877Z" fill="#9DA5D1"/>
<path d="M78.4016 225.788L99.2972 234.163L103.581 229.648L78.4384 214.68L78.4016 225.788Z" fill="#262344"/>
<ellipse cx="98.5699" cy="230.384" rx="1.40511" ry="1.40512" fill="#141334"/>
<ellipse cx="98.6513" cy="230.764" rx="1.02431" ry="1.02429" fill="#666DA2"/>
<path d="M98.6514 231.439C98.6961 231.45 98.742 231.455 98.7879 231.455C99.1494 231.433 99.431 231.133 99.431 230.771C99.431 230.409 99.1494 230.109 98.7879 230.087C98.7425 230.083 98.6968 230.083 98.6514 230.087C98.9662 230.156 99.1907 230.434 99.1907 230.757C99.1907 231.079 98.9662 231.358 98.6514 231.426L98.6514 231.439Z" fill="#332D52"/>
<path d="M98.8061 229.908C98.7484 229.895 98.6893 229.889 98.6302 229.89C98.1664 229.915 97.8035 230.299 97.8035 230.763C97.8035 231.228 98.1664 231.611 98.6302 231.636C98.6893 231.637 98.7484 231.631 98.8061 231.618C98.4035 231.531 98.1161 231.175 98.1161 230.763C98.1161 230.351 98.4035 229.995 98.8061 229.908Z" fill="#9DA5D1"/>
</svg>
